<?xml version="1.0" encoding="UTF-8" standalone="no"?>
<!-- Created with Inkscape (http://www.inkscape.org/) -->

<svg
   width="375mm"
   height="100mm"
   viewBox="0 0 375 100"
   version="1.1"
   id="svg5"
   inkscape:version="1.1.1 (3bf5ae0d25, 2021-09-20)"
   sodipodi:docname="logo.svg"
   xmlns:inkscape="http://www.inkscape.org/namespaces/inkscape"
   xmlns:sodipodi="http://sodipodi.sourceforge.net/DTD/sodipodi-0.dtd"
   xmlns="http://www.w3.org/2000/svg"
   xmlns:svg="http://www.w3.org/2000/svg">
  <sodipodi:namedview
     id="namedview7"
     pagecolor="#ffffff"
     bordercolor="#666666"
     borderopacity="1.0"
     inkscape:pageshadow="2"
     inkscape:pageopacity="0.0"
     inkscape:pagecheckerboard="0"
     inkscape:document-units="mm"
     showgrid="false"
     inkscape:zoom="0.39999299"
     inkscape:cx="393.7569"
     inkscape:cy="13.750241"
     inkscape:window-width="1920"
     inkscape:window-height="1057"
     inkscape:window-x="-8"
     inkscape:window-y="-8"
     inkscape:window-maximized="1"
     inkscape:current-layer="layer1" />
  <defs
     id="defs2">
    <pattern
       id="EMFhbasepattern"
       patternUnits="userSpaceOnUse"
       width="6"
       height="6"
       x="0"
       y="0" />
    <pattern
       id="EMFhbasepattern-8"
       patternUnits="userSpaceOnUse"
       width="6"
       height="6"
       x="0"
       y="0" />
    <pattern
       id="EMFhbasepattern-6"
       patternUnits="userSpaceOnUse"
       width="6"
       height="6"
       x="0"
       y="0" />
    <pattern
       id="EMFhbasepattern-0"
       patternUnits="userSpaceOnUse"
       width="6"
       height="6"
       x="0"
       y="0" />
    <pattern
       id="EMFhbasepattern-9"
       patternUnits="userSpaceOnUse"
       width="6"
       height="6"
       x="0"
       y="0" />
  </defs>
  <g
     inkscape:label="Capa 1"
     inkscape:groupmode="layer"
     id="layer1">
    <g
       id="g2951"
       transform="matrix(3.9298679,0,0,3.9298679,-340.14904,-363.11663)">
      <path
         style="fill:#d4e7ed;stroke-width:0.264667"
         d="m 96.365749,117.31286 c -2.933996,-0.84931 -6.144272,-3.2282 -7.516664,-5.57 -3.797798,-6.48046 -1.412648,-14.460166 5.316189,-17.785738 1.857995,-0.918271 2.26874,-1.016813 4.634326,-1.111828 2.08312,-0.08367 2.95127,0.0039 4.39669,0.44325 3.01381,0.916172 2.99257,0.860581 1.3847,3.625166 -0.75877,1.304633 -1.46058,2.464118 -1.55959,2.576634 -0.099,0.112515 -0.61412,0.02319 -1.1447,-0.1985 -1.3061,-0.545724 -3.520824,-0.500392 -4.840749,0.09908 -2.129573,0.967196 -3.816278,3.463246 -3.816278,5.647456 0,3.56481 2.955875,6.56022 6.465314,6.5518 2.361653,-0.006 5.247123,-2.17494 5.931523,-4.45928 0.59751,-1.9943 0.30126,-3.7349 -0.96344,-5.66071 -0.65118,-0.99157 -0.65118,-0.99157 0.48716,-2.249667 0.62609,-0.69195 1.17806,-1.308185 1.2266,-1.369412 0.0486,-0.06123 0.39688,0.176973 0.77407,0.529333 1.91251,1.786586 3.00192,5.477006 2.48799,8.428176 -0.16368,0.93994 -0.61415,2.35545 -1.00104,3.14559 -0.70345,1.43661 -0.70345,1.43661 0.0607,2.04593 0.74903,0.59725 0.75518,0.62304 0.31049,1.30171 -0.67148,1.02481 -3.40302,2.93997 -5.13322,3.59905 -1.88998,0.71994 -5.711106,0.92982 -7.500081,0.41196 z m 19.085921,-7.67191 c 0,-4.06915 0,-4.06915 1.7865,-4.07463 0.98258,-0.003 1.99493,0.0496 2.24967,0.11699 0.97082,0.2567 0.28664,1.23245 -1.07366,1.53122 -0.84517,0.18563 -0.84517,0.18563 -0.84517,3.3406 0,3.15497 0,3.15497 -1.05867,3.15497 -1.05867,0 -1.05867,0 -1.05867,-4.06915 z m 6.02135,3.887 c -0.25464,-0.0667 -0.53553,-0.41029 -0.62419,-0.76355 -0.0887,-0.35326 -0.2674,-0.6423 -0.39718,-0.6423 -0.12979,0 -0.23598,-0.41685 -0.23598,-0.92633 0,-0.50948 0.10619,-0.92633 0.23598,-0.92633 0.12978,0 0.30713,-0.28352 0.3941,-0.63005 0.19212,-0.76546 0.80171,-0.94962 3.159,-0.95434 1.80408,-0.004 1.80408,-0.004 1.72033,-0.73145 -0.0837,-0.72783 -0.0837,-0.72783 -2.39987,-0.72783 -2.31613,0 -2.31613,0 -2.31583,-0.72279 2.6e-4,-0.90974 0.62052,-1.09229 3.24324,-0.95469 2.12289,0.11138 3.10905,0.66212 3.10905,1.7363 0,0.33157 0.1191,0.60285 0.26467,0.60285 0.16023,0 0.26467,1.13663 0.26467,2.88056 0,2.88057 0,2.88057 -2.9775,2.88089 -1.63763,1.7e-4 -3.18585,-0.0542 -3.44049,-0.12094 z m 4.25223,-2.41144 c 0.0839,-0.87325 0.0839,-0.87325 -1.58534,-0.794 -1.36322,0.0647 -1.68598,0.16701 -1.76046,0.55789 -0.19874,1.04291 0.13631,1.27225 1.73685,1.18884 1.51318,-0.0788 1.52569,-0.0863 1.60895,-0.95273 z m 3.79513,-2.44494 c 0.0577,-3.19497 0.19486,-5.10756 0.37493,-5.22717 0.15619,-0.10375 0.36087,-0.39706 0.45486,-0.6518 0.10114,-0.27412 0.44434,-0.46316 0.84086,-0.46316 0.36849,0 0.66998,-0.1191 0.66998,-0.26467 0,-0.14557 0.53595,-0.26467 1.191,-0.26467 0.65505,0 1.191,0.1191 1.191,0.26467 0,0.14557 0.17865,0.26467 0.397,0.26467 0.26466,0 0.397,0.26466 0.397,0.794 0,0.67048 -0.10293,0.794 -0.66167,0.794 -0.36392,0 -0.66167,-0.1191 -0.66167,-0.26467 0,-0.46838 -1.30622,-0.28178 -1.85266,0.26467 -0.29114,0.29113 -0.52934,0.76753 -0.52934,1.05866 0,0.45092 0.17645,0.52934 1.191,0.52934 1.14689,0 1.191,0.0294 1.191,0.794 0,0.76459 -0.0441,0.794 -1.191,0.794 -1.191,0 -1.191,0 -1.191,3.30833 0,3.30833 0,3.30833 -0.95112,3.30833 -0.95113,0 -0.95113,0 -0.86017,-5.03853 z m 6.11213,4.40309 c -0.44437,-0.47024 -0.5955,-0.94708 -0.5955,-1.87889 0,-1.95839 0.67986,-2.50398 3.12741,-2.50976 1.93641,-0.005 1.93641,-0.005 1.85266,-0.73241 -0.0824,-0.71659 -0.11439,-0.72861 -2.06874,-0.77863 -1.09175,-0.0279 -2.13388,-0.0577 -2.31583,-0.0662 -0.48103,-0.0223 -0.40612,-1.25318 0.0878,-1.44271 0.54009,-0.20726 4.2959,-0.20213 5.07608,0.007 0.33341,0.0893 0.66842,0.43934 0.75653,0.79039 0.087,0.34652 0.26431,0.63004 0.3941,0.63004 0.12979,0 0.23598,1.46938 0.23598,3.2653 0,3.26529 0,3.26529 -2.9775,3.30569 -2.8192,0.0383 -3.00917,0.007 -3.573,-0.58977 z m 4.38376,-1.94506 c 0.0829,-0.86016 0.0829,-0.86016 -1.50242,-0.86016 -1.66328,0 -1.94854,0.23943 -1.66999,1.40169 0.0958,0.39973 0.35063,0.46289 1.6017,0.397 1.46636,-0.0772 1.48897,-0.0907 1.57071,-0.93853 z m 3.2254,2.3032 c 0,-0.15252 0.29775,-0.55325 0.66167,-0.89052 0.36392,-0.33726 0.66167,-0.72196 0.66167,-0.85487 0,-0.13292 0.2382,-0.44562 0.52933,-0.6949 0.29113,-0.24927 0.52933,-0.62312 0.52933,-0.83076 0,-0.20765 0.14888,-0.43761 0.33084,-0.51103 0.26466,-0.1068 0.26466,-0.13767 0,-0.15439 -0.18196,-0.0115 -0.33084,-0.20071 -0.33084,-0.42048 0,-0.21978 -0.2382,-0.60355 -0.52933,-0.85282 -0.29113,-0.24928 -0.52933,-0.56198 -0.52933,-0.6949 0,-0.13291 -0.29775,-0.51761 -0.66167,-0.85487 -0.91942,-0.85209 -0.82798,-1.16782 0.33818,-1.16782 0.92629,0 1.91149,0.65329 1.91149,1.26754 0,0.26637 0.99576,1.11446 1.30852,1.11446 0.13409,0 0.32531,-0.2568 0.42492,-0.57066 0.30381,-0.95722 1.43515,-1.81134 2.39923,-1.81134 0.726,0 0.84965,0.0808 0.70891,0.46316 -0.0938,0.25474 -0.4334,0.71255 -0.75475,1.01735 -0.32135,0.3048 -0.66228,0.79997 -0.75763,1.10038 -0.0953,0.30041 -0.34747,0.61302 -0.56028,0.69468 -0.21281,0.0817 -0.38692,0.45371 -0.38692,0.82676 0,0.37305 0.17411,0.74509 0.38692,0.82676 0.21281,0.0817 0.46494,0.39427 0.56028,0.69468 0.0953,0.30041 0.43628,0.79558 0.75763,1.10038 0.32135,0.3048 0.66099,0.7626 0.75475,1.01735 0.14628,0.39744 0.003,0.46316 -1.01222,0.46316 -0.88562,0 -1.1827,-0.10181 -1.1827,-0.4053 0,-0.22292 -0.1679,-0.46974 -0.37311,-0.54849 -0.20522,-0.0787 -0.44568,-0.43231 -0.53438,-0.78569 -0.0887,-0.35338 -0.27673,-0.64252 -0.41786,-0.64252 -0.32254,0 -1.32131,0.84242 -1.32131,1.11446 0,0.11156 -0.20512,0.44239 -0.45582,0.73518 -0.48724,0.56906 -2.45552,0.7735 -2.45552,0.25506 z m 10.6797,0.0747 c -0.16718,-0.10695 -0.38933,-0.87927 -0.49366,-1.71628 -0.10433,-0.83701 -0.28338,-1.52183 -0.39788,-1.52183 -0.1145,0 -0.29112,-0.7146 -0.39249,-1.588 -0.10137,-0.8734 -0.29171,-1.588 -0.42299,-1.588 -0.13127,0 -0.23868,-0.3573 -0.23868,-0.794 0,-0.69072 0.0947,-0.79348 0.72784,-0.78995 1.11237,0.006 1.32005,0.26688 1.52546,1.91478 0.10433,0.83701 0.29507,1.52183 0.42386,1.52183 0.1288,0 0.23417,0.35357 0.23417,0.7857 0,1.39885 0.74083,0.65838 0.94055,-0.9401 0.0985,-0.78848 0.27124,-1.4336 0.38383,-1.4336 0.11259,0 0.28292,-0.41685 0.3785,-0.92633 0.16281,-0.86784 0.23801,-0.92633 1.191,-0.92633 0.95299,0 1.02819,0.0585 1.191,0.92633 0.0956,0.50948 0.27396,0.92633 0.3964,0.92633 0.12244,0 0.30299,0.53595 0.40122,1.191 0.0982,0.65505 0.2825,1.191 0.40948,1.191 0.12697,0 0.28048,0.32753 0.34112,0.72784 0.10263,0.67743 0.11301,0.66826 0.14992,-0.13234 0.0218,-0.47309 0.14336,-0.86016 0.27012,-0.86016 0.12676,0 0.3116,-0.82334 0.41076,-1.82963 0.18873,-1.9154 0.36007,-2.14037 1.63009,-2.14037 0.53468,0 0.64001,0.13067 0.64001,0.794 0,0.4367 -0.1074,0.794 -0.23867,0.794 -0.13128,0 -0.32162,0.7146 -0.42299,1.588 -0.10137,0.8734 -0.27799,1.588 -0.39249,1.588 -0.1145,0 -0.29355,0.68482 -0.39788,1.52183 -0.21015,1.6859 -0.40319,1.90887 -1.6578,1.91478 -0.58995,0.003 -0.86017,-0.12066 -0.86017,-0.39295 0,-0.21835 -0.1118,-0.397 -0.24845,-0.397 -0.13664,0 -0.32881,-0.53595 -0.42705,-1.191 -0.0982,-0.65505 -0.27092,-1.191 -0.38376,-1.191 -0.11284,0 -0.28336,-0.41685 -0.37894,-0.92633 -0.0956,-0.50948 -0.28209,-0.92633 -0.41446,-0.92633 -0.13238,0 -0.31889,0.41685 -0.41446,0.92633 -0.0956,0.50948 -0.26611,0.92633 -0.37895,0.92633 -0.11283,0 -0.28553,0.53595 -0.38376,1.191 -0.0982,0.65505 -0.2904,1.191 -0.42705,1.191 -0.13665,0 -0.24845,0.17865 -0.24845,0.397 0,0.42347 -1.44874,0.56263 -2.0243,0.19445 z m 11.5523,-0.79105 c -0.90762,-0.96396 -0.92633,-1.0289 -0.92633,-3.21523 0,-1.54985 0.10105,-2.26507 0.33083,-2.34167 0.18196,-0.0606 0.33083,-0.279 0.33083,-0.48522 0,-0.20622 0.16591,-0.37494 0.36869,-0.37494 0.20278,0 0.43724,-0.17865 0.52103,-0.397 0.11638,-0.3033 0.61368,-0.397 2.107,-0.397 1.72759,0 2.03913,0.0783 2.6818,0.67389 0.77578,0.71897 1.13765,2.20054 0.83348,3.41245 -0.16828,0.67047 -0.19808,0.67766 -2.8117,0.67766 -2.84635,0 -3.15609,0.18709 -2.18581,1.3203 0.38854,0.45379 0.77919,0.53236 2.64667,0.53236 2.19084,0 2.19084,0 2.19084,0.794 0,0.794 0,0.794 -2.5805,0.78912 -2.5805,-0.005 -2.5805,-0.005 -3.50683,-0.98872 z m 4.49933,-4.66841 c 0,-0.72696 -0.43302,-0.95465 -1.81549,-0.95465 -0.94091,0 -1.88984,0.66599 -1.88984,1.32635 0,0.1475 0.80828,0.26165 1.85267,0.26165 1.77764,0 1.85266,-0.0256 1.85266,-0.63335 z m 3.7715,5.49839 c -0.24949,-0.10947 -0.33083,-1.50621 -0.33083,-5.6811 0,-5.53594 0,-5.53594 1.05867,-5.53594 1.05866,0 1.05866,0 1.05866,1.55907 0,1.55907 0,1.55907 1.94218,1.65715 1.79824,0.0908 2.00909,0.16501 2.84516,1.00134 0.8789,0.87916 0.90279,0.95978 0.89528,3.0212 -0.005,1.4262 -0.11325,2.15312 -0.33083,2.22564 -0.17772,0.0592 -0.32312,0.24996 -0.32312,0.42383 0,0.17387 -0.26797,0.55102 -0.5955,0.83811 -0.49607,0.43484 -1.0374,0.5315 -3.24217,0.57893 -1.45566,0.0313 -2.79554,-0.008 -2.9775,-0.0882 z m 4.81127,-1.84028 c 0.22874,-0.22875 0.4159,-0.58605 0.4159,-0.794 0,-0.20795 0.1191,-0.3781 0.26467,-0.3781 0.14556,0 0.26466,-0.53595 0.26466,-1.191 0,-0.65505 -0.1191,-1.191 -0.26466,-1.191 -0.14557,0 -0.26467,-0.17325 -0.26467,-0.385 0,-0.43338 -1.34106,-0.76571 -2.5387,-0.62911 -0.76963,0.0878 -0.76963,0.0878 -0.84573,2.53595 -0.0761,2.44816 -0.0761,2.44816 1.23826,2.44816 0.84199,0 1.46384,-0.14947 1.73027,-0.4159 z m -81.10143,-6.3331 c 0,-2.779 0,-2.779 1.6674,-2.779 0.94398,0 1.80519,0.1378 1.985,0.3176 0.53966,0.53966 0.37439,1.73219 -0.31179,2.24977 -0.62939,0.47475 -0.62939,0.47475 0.13233,1.58188 0.8986,1.30607 0.91783,1.40875 0.26381,1.40875 -0.47674,0 -1.457356,-1.06991 -2.108751,-2.30078 -0.271504,-0.51303 -0.222496,-0.62092 0.421908,-0.92882 0.411752,-0.19673 0.765903,-0.60647 0.813663,-0.94138 0.0757,-0.53095 -0.0281,-0.59302 -0.992496,-0.59302 -1.077074,0 -1.077074,0 -1.077074,2.382 0,1.94089 -0.07352,2.382 -0.397,2.382 -0.327683,0 -0.397,-0.48522 -0.397,-2.779 z"
         id="path2965" />
      <path
         style="fill:#a9cfdb;stroke-width:0.264667"
         d="m 96.374185,117.1949 c -8.910512,-2.32604 -12.255167,-13.36072 -6.120027,-20.191177 2.677403,-2.980843 6.156848,-4.407604 10.075032,-4.131308 2.10633,0.148529 5.00747,1.058756 5.23098,1.641205 0.0935,0.243654 -1.97665,4.191246 -2.67787,5.106457 -0.0293,0.0383 -0.48466,-0.110572 -1.01182,-0.330833 -2.211487,-0.924018 -5.601424,-0.128898 -7.113908,1.668586 -2.537411,3.01554 -1.824076,7.65081 1.493009,9.70161 1.146791,0.70901 1.528317,0.801 3.322092,0.801 1.793777,0 2.175297,-0.092 3.322087,-0.801 0.80304,-0.49648 1.6001,-1.29354 2.09658,-2.09658 0.70924,-1.14717 0.801,-1.52802 0.801,-3.3247 0,-1.83614 -0.0832,-2.16303 -0.87522,-3.43705 -0.87521,-1.40793 -0.87521,-1.40793 0.397,-2.704826 1.27222,-1.296894 1.27222,-1.296894 2.02976,-0.421371 0.41665,0.481538 1.0717,1.530577 1.45567,2.331187 0.61812,1.28885 0.69812,1.77527 0.69812,4.24443 0,2.59613 -0.0576,2.90504 -0.8343,4.47202 -0.8343,1.68326 -0.8343,1.68326 -0.0481,2.3448 0.7862,0.66155 0.7862,0.66155 -0.48904,1.9613 -2.12177,2.16256 -5.84278,3.67933 -8.920525,3.6362 -0.598789,-0.008 -1.872528,-0.21987 -2.83053,-0.46995 z m 19.077485,-7.58713 c 0,-4.10233 0,-4.10233 0.66167,-4.10233 0.4117,0 0.66167,0.14998 0.66167,0.397 0,0.43678 0.69708,0.55183 0.83811,0.13832 0.0485,-0.14227 0.47529,-0.3358 0.94839,-0.43008 0.82351,-0.16411 0.86016,-0.13616 0.86016,0.65567 0,0.72783 -0.0882,0.82709 -0.73518,0.82709 -1.33359,0 -1.64682,0.7305 -1.64682,3.84069 0,2.77597 0,2.77597 -0.794,2.77597 -0.794,0 -0.794,0 -0.794,-4.10233 z m 5.88884,3.46836 c -0.32753,-0.3474 -0.5955,-0.76372 -0.5955,-0.92516 0,-0.16145 -0.1191,-0.29353 -0.26467,-0.29353 -0.14557,0 -0.26467,-0.29775 -0.26467,-0.66167 0,-0.36392 0.1191,-0.66167 0.26467,-0.66167 0.14557,0 0.26467,-0.15218 0.26467,-0.33818 0,-0.8181 1.17107,-1.36995 3.12454,-1.47241 1.91183,-0.10028 1.93265,-0.10926 1.85267,-0.79958 -0.0644,-0.55617 -0.24219,-0.71648 -0.87402,-0.78821 -0.43623,-0.0495 -0.89192,-0.22817 -1.01265,-0.397 -0.16418,-0.22959 -0.25334,-0.22357 -0.35375,0.0239 -0.0789,0.19446 -0.61607,0.33083 -1.30318,0.33083 -1.06468,10e-6 -1.16895,-0.0579 -1.16895,-0.64967 0,-0.53623 0.16618,-0.68085 0.95165,-0.8282 1.54784,-0.29038 4.18352,0.0243 4.82841,0.57646 0.5321,0.45561 0.57194,0.73116 0.57194,3.95562 0,3.4659 0,3.4659 -2.71283,3.51301 -2.54717,0.0442 -2.7492,0.009 -3.30833,-0.58452 z m 3.3745,-0.68936 c 0,-0.14557 0.2382,-0.26467 0.52933,-0.26467 0.42851,0 0.52933,-0.17644 0.52933,-0.92633 0,-0.64696 -0.11973,-0.92633 -0.397,-0.92633 -0.21835,0 -0.397,-0.1191 -0.397,-0.26467 0,-0.14557 -0.41685,-0.26467 -0.92633,-0.26467 -0.50948,0 -0.92633,0.1191 -0.92633,0.26467 0,0.14557 -0.17865,0.26467 -0.397,0.26467 -0.27727,0 -0.397,0.27937 -0.397,0.92633 0,0.64696 0.11973,0.92633 0.397,0.92633 0.21835,0 0.397,0.1191 0.397,0.26467 0,0.14557 0.3573,0.26467 0.794,0.26467 0.4367,0 0.794,-0.1191 0.794,-0.26467 z m 5.02866,-3.71797 c 0,-5.04131 0,-5.04131 0.70032,-5.69033 0.40326,-0.37374 1.02071,-0.64903 1.45566,-0.64903 0.41545,0 0.75536,-0.1191 0.75536,-0.26467 0,-0.14557 0.17865,-0.26467 0.397,-0.26467 0.21835,0 0.397,0.10422 0.397,0.23159 0,0.12737 0.3573,0.30304 0.794,0.39038 0.46569,0.0931 0.794,0.32569 0.794,0.56242 0,0.31341 -0.32955,0.40361 -1.47458,0.40361 -1.65002,0 -2.23076,0.37404 -2.23076,1.43676 0,0.63016 0.0882,0.68058 1.191,0.68058 1.01456,0 1.191,0.0784 1.191,0.52933 0,0.41444 -0.17644,0.52933 -0.8129,0.52933 -1.40732,0 -1.5691,0.40736 -1.5691,3.9511 0,3.1949 0,3.1949 -0.794,3.1949 -0.794,0 -0.794,0 -0.794,-5.0413 z m 6.64561,4.85352 c -1.00113,-0.39661 -1.35227,-1.00074 -1.35227,-2.32655 0,-1.93836 0.56202,-2.35027 3.3745,-2.47321 1.64764,-0.072 2.1835,-0.18621 2.1835,-0.46528 0,-0.20342 -0.1191,-0.36984 -0.26467,-0.36984 -0.14557,0 -0.26467,-0.17865 -0.26467,-0.397 0,-0.26215 -0.26221,-0.397 -0.77194,-0.397 -0.42457,0 -0.83202,-0.14888 -0.90544,-0.33084 -0.1068,-0.26466 -0.13767,-0.26466 -0.15439,0 -0.0134,0.21256 -0.44668,0.33084 -1.21189,0.33084 -1.0881,0 -1.191,-0.0561 -1.191,-0.64968 0,-0.53455 0.16631,-0.68087 0.9386,-0.82575 2.2584,-0.42368 4.88406,0.32998 4.88406,1.40191 0,0.186 0.1191,0.33818 0.26467,0.33818 0.16154,0 0.26467,1.22058 0.26467,3.13241 0,3.13241 0,3.13241 -2.71284,3.15502 -1.49206,0.0124 -2.87846,-0.043 -3.08089,-0.12321 z m 2.61773,-1.10247 c 0,-0.12737 0.3573,-0.30304 0.794,-0.39038 0.67223,-0.13445 0.794,-0.28158 0.794,-0.95942 0,-0.53521 -0.13161,-0.80061 -0.397,-0.80061 -0.21835,0 -0.397,-0.1191 -0.397,-0.26467 0,-0.14557 -0.4764,-0.26467 -1.05867,-0.26467 -0.58227,0 -1.05867,0.10521 -1.05867,0.2338 0,0.12859 -0.2382,0.29609 -0.52933,0.37222 -0.66542,0.17401 -0.70157,1.15993 -0.0662,1.80422 0.47526,0.4819 1.91884,0.68466 1.91884,0.26951 z m 4.43316,1.11497 c 0.18196,-0.0734 0.33084,-0.30339 0.33084,-0.51103 0,-0.20764 0.2382,-0.58149 0.52933,-0.83076 0.29113,-0.24928 0.52933,-0.56198 0.52933,-0.6949 0,-0.13291 0.29775,-0.51761 0.66167,-0.85487 0.36392,-0.33727 0.66167,-0.80324 0.66167,-1.03549 0,-0.23225 -0.29775,-0.69822 -0.66167,-1.03549 -0.36392,-0.33726 -0.66167,-0.72196 -0.66167,-0.85487 0,-0.13292 -0.2382,-0.44562 -0.52933,-0.6949 -0.29113,-0.24927 -0.52933,-0.62312 -0.52933,-0.83076 0,-0.20765 -0.14888,-0.43761 -0.33084,-0.51103 -0.18196,-0.0734 0.17908,-0.1429 0.80231,-0.15439 0.85024,-0.0157 1.1757,0.0947 1.30361,0.44227 0.0938,0.25474 0.43022,0.70961 0.74768,1.0108 0.31747,0.30121 0.62702,0.69705 0.68789,0.87966 0.144,0.43201 1.42152,-0.72734 1.67237,-1.51769 0.19294,-0.60789 1.02999,-0.93582 2.0209,-0.7917 0.56803,0.0826 0.57795,0.11577 0.15925,0.53236 -0.24558,0.24435 -0.44651,0.5454 -0.44651,0.66902 0,0.12361 -0.2382,0.4287 -0.52933,0.67798 -0.29113,0.24927 -0.52933,0.6203 -0.52933,0.8245 0,0.2042 -0.17865,0.43983 -0.397,0.52362 -0.21835,0.0838 -0.397,0.45757 -0.397,0.83062 0,0.37305 0.17865,0.74683 0.397,0.83062 0.21835,0.0838 0.397,0.31942 0.397,0.52362 0,0.2042 0.2382,0.57523 0.52933,0.8245 0.29113,0.24928 0.52933,0.55437 0.52933,0.67798 0,0.12362 0.20093,0.42467 0.44651,0.66902 0.4187,0.41659 0.40878,0.44975 -0.15925,0.53236 -0.99091,0.14412 -1.82796,-0.18381 -2.0209,-0.7917 -0.25085,-0.79035 -1.52837,-1.9497 -1.67237,-1.51769 -0.0609,0.18261 -0.37042,0.57845 -0.68789,0.87965 -0.31746,0.3012 -0.65392,0.75606 -0.74768,1.01081 -0.12791,0.34753 -0.45337,0.45795 -1.30361,0.44227 -0.62323,-0.0115 -0.98427,-0.081 -0.80231,-0.15439 z m 10.65284,-0.22172 c 0,-0.21835 -0.10741,-0.397 -0.23868,-0.397 -0.13128,0 -0.32162,-0.7146 -0.42299,-1.588 -0.10137,-0.8734 -0.28002,-1.588 -0.397,-1.588 -0.11698,0 -0.29563,-0.7146 -0.397,-1.588 -0.10137,-0.8734 -0.29171,-1.588 -0.42299,-1.588 -0.13127,0 -0.23868,-0.2382 -0.23868,-0.52933 0,-0.41171 0.17645,-0.52933 0.794,-0.52933 0.52934,0 0.794,0.13233 0.794,0.397 0,0.21835 0.10741,0.397 0.23868,0.397 0.13128,0 0.32162,0.7146 0.42299,1.588 0.10137,0.8734 0.29171,1.588 0.42299,1.588 0.13127,0 0.23867,0.3658 0.23867,0.8129 0,1.25371 0.67142,0.39773 0.90387,-1.15231 0.10298,-0.68673 0.28552,-1.24859 0.40563,-1.24859 0.12012,0 0.29877,-0.53595 0.397,-1.191 0.15358,-1.02416 0.26599,-1.191 0.80241,-1.191 1.10423,0 1.45971,0.29512 1.62875,1.35222 0.0906,0.56638 0.26125,1.02978 0.37929,1.02978 0.11804,0 0.29499,0.53595 0.39322,1.191 0.0982,0.65505 0.27545,1.191 0.39381,1.191 0.11837,0 0.26968,0.20842 0.33625,0.46316 0.0745,0.28496 0.13285,0.18313 0.15174,-0.26466 0.0169,-0.40031 0.13593,-0.72784 0.26453,-0.72784 0.12861,0 0.31674,-0.77415 0.41807,-1.72033 0.10133,-0.94618 0.29385,-1.72033 0.42783,-1.72033 0.13399,0 0.2436,-0.17865 0.2436,-0.397 0,-0.26467 0.26467,-0.397 0.794,-0.397 0.61756,0 0.794,0.11762 0.794,0.52933 0,0.29113 -0.1074,0.52933 -0.23867,0.52933 -0.13128,0 -0.32162,0.7146 -0.42299,1.588 -0.10137,0.8734 -0.28002,1.588 -0.397,1.588 -0.11698,0 -0.29563,0.7146 -0.397,1.588 -0.10137,0.8734 -0.29171,1.588 -0.42299,1.588 -0.13127,0 -0.23868,0.17865 -0.23868,0.397 0,0.27727 -0.27937,0.397 -0.92633,0.397 -0.74989,0 -0.92634,-0.10082 -0.92634,-0.52933 0,-0.29113 -0.10557,-0.52933 -0.23461,-0.52933 -0.12904,0 -0.31499,-0.53595 -0.41322,-1.191 -0.0982,-0.65505 -0.289,-1.191 -0.42392,-1.191 -0.13493,0 -0.3215,-0.4764 -0.41461,-1.05867 -0.0931,-0.58227 -0.27176,-1.05867 -0.397,-1.05867 -0.12524,0 -0.30389,0.4764 -0.397,1.05867 -0.0931,0.58227 -0.26587,1.05867 -0.38391,1.05867 -0.11804,0 -0.29499,0.53595 -0.39323,1.191 -0.0982,0.65505 -0.28417,1.191 -0.41321,1.191 -0.12904,0 -0.23462,0.2382 -0.23462,0.52933 0,0.42851 -0.17644,0.52933 -0.92633,0.52933 -0.64696,0 -0.92633,-0.11973 -0.92633,-0.397 z m 12.44187,0.20051 c -0.21695,-0.0851 -0.7529,-0.51314 -1.191,-0.95124 -0.75536,-0.75537 -0.79654,-0.90812 -0.79654,-2.9546 0,-2.10422 0.0226,-2.18065 0.90597,-3.06403 0.8721,-0.87209 0.98097,-0.90597 2.91134,-0.90597 2.3857,0 3.11265,0.48802 3.22257,2.16339 0.17004,2.59176 0.30997,2.46828 -2.79691,2.46828 -2.50262,0 -2.75393,0.0437 -2.59745,0.45144 0.31336,0.81661 0.97644,1.40122 1.5893,1.40122 0.33156,0 0.60284,0.1191 0.60284,0.26467 0,0.14557 0.41685,0.26467 0.92634,0.26467 0.50948,0 0.92633,-0.1191 0.92633,-0.26467 0,-0.14557 0.29775,-0.26467 0.66167,-0.26467 0.52144,0 0.66166,0.13422 0.66166,0.63335 0,0.34835 -0.18839,0.70565 -0.41864,0.794 -0.52326,0.2008 -4.07455,0.17317 -4.60748,-0.0358 z m 3.43812,-5.4888 c 0,-0.49669 -0.17727,-0.70001 -0.72783,-0.83475 -0.40031,-0.098 -0.81716,-0.30866 -0.92633,-0.46821 -0.14393,-0.21033 -0.25307,-0.21033 -0.397,0 -0.10918,0.15955 -0.52603,0.37024 -0.92634,0.46821 -0.55055,0.13474 -0.72783,0.33806 -0.72783,0.83475 0,0.63652 0.0567,0.65663 1.85267,0.65663 1.79594,0 1.85266,-0.0201 1.85266,-0.65663 z m 3.7715,5.52196 c -0.24906,-0.1095 -0.33083,-1.47661 -0.33083,-5.53122 0,-5.15333 0.0228,-5.39303 0.52933,-5.55378 0.29114,-0.0924 0.76754,-0.0924 1.05867,0 0.44164,0.14017 0.52933,0.40045 0.52933,1.57103 0,1.40303 0,1.40303 1.93155,1.52698 1.94381,0.12475 3.09712,0.66848 3.09712,1.46014 0,0.186 0.1191,0.33818 0.26467,0.33818 0.15542,0 0.26466,0.9169 0.26466,2.22135 0,1.73038 -0.0877,2.25502 -0.397,2.3737 -0.21835,0.0838 -0.397,0.33473 -0.397,0.55765 0,0.22292 -0.16872,0.4053 -0.37494,0.4053 -0.20622,0 -0.42446,0.14888 -0.48498,0.33084 -0.11352,0.34129 -5.00948,0.59926 -5.69058,0.29983 z m 3.63917,-1.16 c 0,-0.14557 0.3089,-0.26467 0.68645,-0.26467 0.46386,0 0.73133,-0.17164 0.82486,-0.52933 0.0761,-0.29113 0.24364,-0.52933 0.37223,-0.52933 0.12858,0 0.23379,-0.65369 0.23379,-1.45265 0,-2.04052 -0.46233,-2.51735 -2.44082,-2.51735 -1.52918,0 -1.52918,0 -1.52918,2.51433 0,2.05852 0.072,2.51433 0.397,2.51433 0.21835,0 0.397,0.1191 0.397,0.26467 0,0.14557 0.2382,0.26467 0.52934,0.26467 0.29113,0 0.52933,-0.1191 0.52933,-0.26467 z M 97.45434,105.3731 c 0,-2.779 0,-2.779 1.569095,-2.779 2.365635,0 3.161945,1.17264 1.710055,2.51821 -0.69085,0.64025 -0.69085,0.64025 0.13233,1.67961 0.95481,1.20554 0.99401,1.36018 0.3448,1.36018 -0.49819,0 -2.16828,-2.12435 -2.16828,-2.75804 0,-0.19832 0.284613,-0.43201 0.632473,-0.51931 0.648817,-0.16285 1.073397,-0.81715 0.808437,-1.24586 -0.0819,-0.13244 -0.618188,-0.24079 -1.191863,-0.24079 -1.043047,0 -1.043047,0 -1.043047,2.382 0,1.94089 -0.07352,2.382 -0.397,2.382 -0.327683,0 -0.397,-0.48522 -0.397,-2.779 z"
         id="path2963" />
      <path
         style="fill:#86bacc;stroke-width:0.264667"
         d="M 97.594158,117.39785 C 87.568744,115.72175 83.655265,103.64683 90.8165,96.485596 c 2.562045,-2.562045 5.973084,-3.869579 9.41744,-3.609934 1.77386,0.133718 4.72527,0.972781 5.24305,1.490557 0.15136,0.151357 -0.28269,1.169465 -1.12929,2.648868 -0.75633,1.321659 -1.41993,2.403016 -1.47467,2.403016 -0.0547,0 -0.79017,-0.180406 -1.63428,-0.400903 -2.787753,-0.728211 -5.513652,0.349262 -7.153807,2.82771 -0.660367,0.99788 -0.732936,1.33649 -0.732936,3.4199 0,2.14654 0.05747,2.39413 0.801391,3.4526 0.440765,0.62714 1.311746,1.49893 1.935513,1.93733 0.956578,0.67231 1.43538,0.81231 3.058529,0.89427 1.65466,0.0836 2.11122,0.002 3.25718,-0.57819 2.52838,-1.28122 3.61056,-3.20853 3.46884,-6.17782 -0.0788,-1.65059 -0.20757,-2.06903 -0.96951,-3.15 -0.87865,-1.24655 -0.87865,-1.24655 0.43275,-2.557958 1.31141,-1.311404 1.31141,-1.311404 2.37636,0.175778 2.15888,3.01485 2.49472,6.93085 0.88871,10.3628 -0.83699,1.78862 -0.83699,1.78862 -0.004,2.48384 0.83277,0.69523 0.83277,0.69523 -0.72205,2.11858 -1.85172,1.69515 -4.09659,2.80024 -6.45116,3.17572 -1.916085,0.30556 -1.979518,0.3055 -3.83018,-0.004 z m 17.857512,-7.79008 c 0,-4.10233 0,-4.10233 0.66167,-4.10233 0.4117,0 0.66167,0.14998 0.66167,0.397 0,0.21835 0.17865,0.397 0.397,0.397 0.21835,0 0.397,-0.10964 0.397,-0.24364 0,-0.27785 1.55003,-0.67655 1.77104,-0.45554 0.0799,0.0798 0.0691,0.44849 -0.024,0.81918 -0.11879,0.47336 -0.34711,0.674 -0.76695,0.674 -1.19005,0 -1.50945,0.81267 -1.50945,3.84069 0,2.77597 0,2.77597 -0.794,2.77597 -0.794,0 -0.794,0 -0.794,-4.10233 z m 6.64561,3.91308 c -0.99914,-0.39184 -1.35227,-0.99902 -1.35227,-2.32508 0,-1.87466 0.58428,-2.33902 3.10983,-2.47152 1.84006,-0.0965 1.91883,-0.12766 1.91883,-0.75819 0,-0.43493 -0.17919,-0.70437 -0.52933,-0.79594 -0.29113,-0.0761 -0.52933,-0.24363 -0.52933,-0.37222 0,-0.12859 -0.4764,-0.2338 -1.05867,-0.2338 -0.58227,0 -1.05867,0.1191 -1.05867,0.26467 0,0.14557 -0.3573,0.26467 -0.794,0.26467 -0.66421,0 -0.794,-0.10504 -0.794,-0.64262 0,-0.58134 0.14043,-0.66017 1.47247,-0.8266 1.71053,-0.21372 3.63562,-0.0129 3.77106,0.39348 0.0517,0.15495 0.24875,0.28174 0.43799,0.28174 0.52148,0 0.66295,0.89902 0.66641,4.23466 0.003,3.04367 0.003,3.04367 -2.44455,3.08738 -1.34624,0.024 -2.61334,-0.0212 -2.81577,-0.10063 z m 2.61773,-1.13408 c 0,-0.14557 0.2382,-0.26467 0.52933,-0.26467 0.45091,0 0.52933,-0.17644 0.52933,-1.191 0,-1.191 0,-1.191 -1.32333,-1.191 -0.72783,0 -1.32333,0.1191 -1.32333,0.26467 0,0.14557 -0.17865,0.26467 -0.397,0.26467 -0.21835,0 -0.397,0.17865 -0.397,0.397 0,0.21835 -0.14888,0.39882 -0.33084,0.40105 -0.2325,0.003 -0.2431,0.0618 -0.0357,0.1985 0.16234,0.10694 0.37879,0.46242 0.481,0.78995 0.15139,0.4851 0.3788,0.5955 1.22668,0.5955 0.57245,0 1.04083,-0.1191 1.04083,-0.26467 z m 5.02866,-3.573 c 0,-3.08778 0.0978,-4.89633 0.26467,-4.89633 0.14557,0 0.26467,-0.17015 0.26467,-0.3781 0,-0.82931 0.79686,-1.2099 2.53323,-1.2099 1.52499,0 1.70143,0.0549 1.70143,0.52933 0,0.45214 -0.17644,0.52933 -1.2099,0.52933 -1.37392,0 -1.9661,0.43275 -1.9661,1.43676 0,0.63016 0.0882,0.68058 1.191,0.68058 1.01456,0 1.191,0.0784 1.191,0.52933 0,0.45091 -0.17644,0.52933 -1.191,0.52933 -1.191,0 -1.191,0 -1.191,3.573 0,3.573 0,3.573 -0.794,3.573 -0.794,0 -0.794,0 -0.794,-4.89633 z m 6.6214,4.69866 c -0.86992,-0.33722 -1.19573,-0.96847 -1.19573,-2.31666 0,-1.9805 0.44048,-2.31906 3.20612,-2.46422 2.1218,-0.11136 2.21955,-0.14395 2.21955,-0.73993 0,-0.44426 -0.19016,-0.67116 -0.66167,-0.7895 -0.36392,-0.0913 -0.66167,-0.27226 -0.66167,-0.40204 0,-0.12979 -0.41685,-0.23598 -0.92633,-0.23598 -0.50948,0 -0.92633,0.1191 -0.92633,0.26467 0,0.14557 -0.3573,0.26467 -0.794,0.26467 -0.66659,0 -0.794,-0.10426 -0.794,-0.64968 0,-0.53632 0.16616,-0.68084 0.95237,-0.82834 2.18231,-0.4094 4.87029,0.36576 4.87029,1.4045 0,0.186 0.1191,0.33818 0.26467,0.33818 0.1615,0 0.26467,1.21801 0.26467,3.12468 0,3.12467 0,3.12467 -2.71284,3.1532 -1.49206,0.0157 -2.88935,-0.0399 -3.1051,-0.12355 z m 2.9066,-1.09697 c 0,-0.12978 0.29775,-0.3107 0.66167,-0.40204 0.48958,-0.12288 0.66167,-0.34176 0.66167,-0.8416 0,-0.96602 -0.59549,-1.43172 -1.83074,-1.43172 -1.81849,0 -2.74258,1.32885 -1.6761,2.41024 0.47494,0.48157 2.1835,0.68902 2.1835,0.26512 z m 4.3481,0.87874 c 0.22875,-0.22875 0.4159,-0.53219 0.4159,-0.67431 0,-0.14211 0.29775,-0.53434 0.66167,-0.87161 0.36392,-0.33726 0.66167,-0.75216 0.66167,-0.922 0,-0.16983 0.17865,-0.37734 0.397,-0.46113 0.21835,-0.0838 0.397,-0.42461 0.397,-0.75738 0,-0.33277 -0.17865,-0.67359 -0.397,-0.75738 -0.21835,-0.0838 -0.397,-0.2913 -0.397,-0.46113 0,-0.16984 -0.29775,-0.58474 -0.66167,-0.922 -0.36392,-0.33727 -0.66167,-0.7295 -0.66167,-0.87161 0,-0.14212 -0.18715,-0.44556 -0.4159,-0.67431 -0.3781,-0.37809 -0.31795,-0.4159 0.66166,-0.4159 0.6981,0 1.07758,0.11909 1.07758,0.33818 0,0.186 0.2382,0.54213 0.52933,0.79141 0.29113,0.24927 0.52933,0.6203 0.52933,0.8245 0,0.34897 0.53598,0.69257 1.08032,0.69257 0.13365,0 0.24302,-0.15218 0.24302,-0.33818 0,-0.186 0.2382,-0.54213 0.52933,-0.79141 0.29113,-0.24927 0.52933,-0.6203 0.52933,-0.8245 0,-0.42911 0.56199,-0.69257 1.47732,-0.69257 0.70769,0 0.88357,0.6439 0.24302,0.88971 -0.21835,0.0838 -0.397,0.2913 -0.397,0.46113 0,0.16984 -0.29775,0.58474 -0.66167,0.922 -0.36392,0.33727 -0.66167,0.7295 -0.66167,0.87161 0,0.14212 -0.18715,0.44556 -0.4159,0.67431 -0.22875,0.22875 -0.29633,0.4159 -0.15017,0.4159 0.14615,0 0.34724,0.2568 0.44685,0.57066 0.0996,0.31386 0.46495,0.83369 0.81184,1.15518 0.34689,0.32149 0.63072,0.72348 0.63072,0.89332 0,0.16983 0.17865,0.37734 0.397,0.46113 0.64055,0.24581 0.46467,0.88971 -0.24302,0.88971 -0.91533,0 -1.47732,-0.26346 -1.47732,-0.69257 0,-0.2042 -0.2382,-0.57523 -0.52933,-0.8245 -0.29113,-0.24928 -0.52933,-0.60541 -0.52933,-0.79141 0,-0.186 -0.10937,-0.33818 -0.24302,-0.33818 -0.54434,0 -1.08032,0.3436 -1.08032,0.69257 0,0.2042 -0.2382,0.57523 -0.52933,0.8245 -0.29113,0.24928 -0.52933,0.60541 -0.52933,0.79141 0,0.21909 -0.37948,0.33818 -1.07758,0.33818 -0.97961,0 -1.03976,-0.0378 -0.66166,-0.4159 z m 10.47324,-0.0967 c 0,-0.30036 -0.10741,-0.5461 -0.23868,-0.5461 -0.13128,0 -0.32162,-0.7146 -0.42299,-1.588 -0.10137,-0.8734 -0.28002,-1.588 -0.397,-1.588 -0.11698,0 -0.29563,-0.7146 -0.397,-1.588 -0.10137,-0.8734 -0.29171,-1.588 -0.42299,-1.588 -0.13127,0 -0.23868,-0.17865 -0.23868,-0.397 0,-0.26467 0.26467,-0.397 0.794,-0.397 0.61756,0 0.794,0.11762 0.794,0.52933 0,0.29113 0.10741,0.52933 0.23868,0.52933 0.13128,0 0.32162,0.7146 0.42299,1.588 0.10137,0.8734 0.29171,1.588 0.42299,1.588 0.13127,0 0.25249,0.38708 0.26938,0.86017 0.0169,0.47309 0.0852,0.65174 0.15174,0.397 0.0666,-0.25474 0.2241,-0.46317 0.35008,-0.46317 0.12597,0 0.30941,-0.53595 0.40764,-1.191 0.0982,-0.65505 0.27688,-1.191 0.397,-1.191 0.12012,0 0.29818,-0.53203 0.39569,-1.18228 0.12435,-0.82916 0.32682,-1.22975 0.67789,-1.34117 0.98226,-0.31176 1.49228,0.0956 1.67906,1.34117 0.0975,0.65025 0.27558,1.18228 0.39569,1.18228 0.12012,0 0.29877,0.53595 0.397,1.191 0.0982,0.65505 0.28168,1.191 0.40765,1.191 0.12597,0 0.28351,0.20843 0.35008,0.46317 0.0911,0.34854 0.12864,0.31579 0.15174,-0.13233 0.0169,-0.32753 0.13441,-0.5955 0.26117,-0.5955 0.12676,0 0.31262,-0.8337 0.41303,-1.85267 0.1004,-1.01897 0.29444,-1.85267 0.43119,-1.85267 0.13676,0 0.24864,-0.2382 0.24864,-0.52933 0,-0.41171 0.17645,-0.52933 0.794,-0.52933 0.52934,0 0.794,0.13233 0.794,0.397 0,0.21835 -0.1074,0.397 -0.23867,0.397 -0.13128,0 -0.32162,0.7146 -0.42299,1.588 -0.10137,0.8734 -0.28002,1.588 -0.397,1.588 -0.11698,0 -0.29563,0.7146 -0.397,1.588 -0.10137,0.8734 -0.29171,1.588 -0.42299,1.588 -0.13127,0 -0.23868,0.24574 -0.23868,0.5461 0,0.45668 -0.14084,0.53252 -0.86017,0.46317 -0.71673,-0.0691 -0.87413,-0.2043 -0.94391,-0.81077 -0.0461,-0.40031 -0.18954,-0.72784 -0.31884,-0.72784 -0.1293,0 -0.3133,-0.41685 -0.40887,-0.92633 -0.0956,-0.50948 -0.26441,-0.92633 -0.37517,-0.92633 -0.11076,0 -0.27757,-0.4764 -0.37067,-1.05867 -0.19993,-1.25028 -0.64031,-1.38512 -0.8644,-0.26467 -0.0873,0.4367 -0.24949,0.794 -0.36033,0.794 -0.11085,0 -0.28191,0.53595 -0.38014,1.191 -0.0982,0.65505 -0.28249,1.191 -0.40947,1.191 -0.12698,0 -0.26856,0.32753 -0.31462,0.72784 -0.0698,0.60647 -0.22717,0.74166 -0.94391,0.81077 -0.71932,0.0694 -0.86016,-0.006 -0.86016,-0.46317 z m 12.63783,0.33012 c -0.25474,-0.0666 -0.46317,-0.2314 -0.46317,-0.3663 0,-0.13489 -0.18239,-0.24526 -0.4053,-0.24526 -0.22292,0 -0.48221,-0.20842 -0.5762,-0.46316 -0.094,-0.25475 -0.29537,-0.54611 -0.44751,-0.64747 -0.40275,-0.26835 -0.36021,-4.24796 0.0469,-4.38365 0.17792,-0.0593 0.32348,-0.25008 0.32348,-0.42395 0,-0.9904 1.95881,-1.63937 4.12954,-1.36815 1.22072,0.15252 1.45133,0.27166 1.58922,0.82106 0.0887,0.35346 0.26748,0.64266 0.39727,0.64266 0.12978,0 0.23597,0.7146 0.23597,1.588 0,1.588 0,1.588 -2.80769,1.588 -2.80769,0 -2.80769,0 -2.62568,0.72518 0.20027,0.79792 0.55981,1.11726 1.26487,1.12343 0.25475,0.002 0.46317,0.12315 0.46317,0.26872 0,0.14557 0.65505,0.26467 1.45567,0.26467 0.85869,0 1.45566,-0.1163 1.45566,-0.28358 0,-0.15596 0.17865,-0.10492 0.397,0.11343 0.51087,0.51087 0.50367,0.86659 -0.0216,1.06816 -0.47045,0.18053 -3.69832,0.16459 -4.41151,-0.0218 z m 3.36621,-5.40168 c -0.27004,-0.85082 -1.10971,-1.56188 -1.84438,-1.56188 -0.36392,0 -0.66167,0.1191 -0.66167,0.26467 0,0.14557 -0.14887,0.26649 -0.33083,0.26872 -0.52606,0.006 -0.90657,0.3462 -1.107,0.98845 -0.18224,0.58398 -0.1442,0.5955 1.96717,0.5955 2.06632,0 2.1459,-0.0224 1.97671,-0.55546 z m 4.04445,5.43056 c -0.10917,-0.10963 -0.1985,-2.62102 -0.1985,-5.58088 0,-5.20511 0.0174,-5.38156 0.52934,-5.38156 0.46797,0 0.52932,0.17643 0.52927,1.52184 -6e-5,1.52183 -6e-5,1.52183 2.16106,1.52183 1.49343,0 2.19531,0.10221 2.27178,0.33083 0.0609,0.18196 0.26993,0.33084 0.46458,0.33084 0.19465,0 0.43239,0.3573 0.52831,0.794 0.0959,0.4367 0.28403,0.794 0.41803,0.794 0.134,0 0.24363,0.77415 0.24363,1.72033 0,0.97045 -0.11536,1.72033 -0.26466,1.72033 -0.14557,0 -0.26467,0.16126 -0.26467,0.35836 0,0.19709 -0.31944,0.70326 -0.70986,1.12483 -0.66688,0.72007 -0.85519,0.77187 -3.10984,0.85553 -1.31998,0.049 -2.48929,-5.3e-4 -2.59847,-0.11028 z m 3.7715,-1.16977 c 0,-0.14557 0.15219,-0.26467 0.33818,-0.26467 0.73063,0 1.24982,-1.04449 1.24982,-2.51433 0,-1.98852 -0.47823,-2.51433 -2.28683,-2.51433 -2.21549,0 -2.2125,-0.004 -2.2125,2.67498 0,1.91572 0.0739,2.35368 0.397,2.35368 0.21835,0 0.397,0.1191 0.397,0.26467 0,0.14557 0.4764,0.26467 1.05867,0.26467 0.58226,0 1.05866,-0.1191 1.05866,-0.26467 z M 97.45434,105.3731 c 0,-2.779 0,-2.779 1.54698,-2.779 1.16256,0 1.65583,0.12028 1.985,0.48401 0.60721,0.67096 0.55035,1.09012 -0.26308,1.93916 -0.70111,0.73179 -0.70111,0.73179 -0.0474,1.60248 1.03733,1.38168 1.09299,1.53241 0.56564,1.53184 -0.51227,-5.3e-4 -2.406514,-2.52698 -2.113987,-2.81951 0.09359,-0.0936 0.440243,-0.30481 0.770346,-0.46938 0.825621,-0.41162 0.773001,-1.26874 -0.09668,-1.57459 -1.351748,-0.47538 -1.552802,-0.1551 -1.552802,2.47369 0,1.94827 -0.07342,2.3903 -0.397,2.3903 -0.327683,0 -0.397,-0.48522 -0.397,-2.779 z"
         id="path2961" />
      <path
         style="fill:#6bafc4;stroke-width:0.264667"
         d="m 95.730551,116.93936 c -6.228085,-2.15362 -9.7972,-8.57215 -8.192501,-14.733 1.831628,-7.032097 9.429801,-11.122219 16.02109,-8.624211 2.34238,0.88773 2.30399,0.717107 0.76886,3.417092 -0.75641,1.330374 -1.4512,2.417129 -1.54398,2.41501 -0.0928,-0.0021 -0.70463,-0.192219 -1.35968,-0.422446 -2.260421,-0.794458 -4.874165,-0.02607 -6.668945,1.960535 -2.197732,2.43263 -2.198527,6.14335 -0.0018,8.57483 1.604573,1.77607 3.67538,2.48309 5.988135,2.04448 3.71332,-0.70421 6.09769,-4.48524 5.06614,-8.03365 -0.22992,-0.79091 -0.71297,-1.78853 -1.07343,-2.21691 -0.6554,-0.77889 -0.6554,-0.77889 0.42176,-2.002604 0.59243,-0.673044 1.22949,-1.223716 1.41567,-1.223716 0.42381,0 1.52092,1.570906 2.3105,3.30833 0.48843,1.07475 0.60262,1.79669 0.60787,3.84324 0.006,2.33736 -0.0587,2.65226 -0.89313,4.34724 -0.8996,1.82734 -0.8996,1.82734 -0.1985,2.38637 0.3856,0.30747 0.70109,0.68827 0.70109,0.84622 0,0.4207 -2.09948,2.28546 -3.45736,3.07083 -2.65383,1.53493 -7.126931,2.00534 -9.911763,1.04236 z m 19.721119,-7.17094 c 0,-3.35015 0.0628,-3.96579 0.41865,-4.10233 0.66228,-0.25414 0.90469,-0.19082 0.90469,0.23635 0,0.42183 0.68913,0.55711 0.83811,0.16452 0.0485,-0.12786 0.47529,-0.31598 0.94839,-0.41803 0.75416,-0.16268 0.86016,-0.11773 0.86016,0.36481 0,0.31277 -0.17138,0.55036 -0.397,0.55036 -0.21835,0 -0.397,0.10964 -0.397,0.24364 0,0.134 -0.3573,0.32211 -0.794,0.41803 -0.794,0.17439 -0.794,0.17439 -0.794,3.32936 0,3.15497 0,3.15497 -0.794,3.15497 -0.794,0 -0.794,0 -0.794,-3.94168 z m 6.64561,3.75243 c -0.99914,-0.39184 -1.35227,-0.99902 -1.35227,-2.32508 0,-1.85178 0.5608,-2.29721 3.09712,-2.45999 1.92123,-0.12329 1.93154,-0.12801 1.93154,-0.88315 0,-0.49839 -0.13637,-0.75919 -0.397,-0.75919 -0.21835,0 -0.397,-0.1191 -0.397,-0.26467 0,-0.14557 -0.5955,-0.26467 -1.32333,-0.26467 -0.72783,0 -1.32333,0.1191 -1.32333,0.26467 0,0.14557 -0.29775,0.26467 -0.66167,0.26467 -0.76764,0 -0.84917,-0.37976 -0.21713,-1.01141 0.3402,-0.33999 0.92036,-0.44266 2.47197,-0.43744 1.88825,0.006 2.07577,0.059 2.73146,0.76648 0.68171,0.73558 0.70402,0.86123 0.70357,3.96318 -5.3e-4,3.20352 -5.3e-4,3.20352 -2.44816,3.24723 -1.34624,0.024 -2.61334,-0.0212 -2.81577,-0.10063 z m 2.88239,-1.13408 c 0,-0.14557 0.17865,-0.26467 0.397,-0.26467 0.29408,0 0.397,-0.30878 0.397,-1.191 0,-1.191 0,-1.191 -1.45566,-1.191 -2.14432,0 -3.14973,1.15676 -2.05117,2.35995 0.49565,0.54285 2.71283,0.77719 2.71283,0.28672 z m 4.764,-3.573 c 0,-2.69298 0.10619,-4.89633 0.23598,-4.89633 0.12978,0 0.30713,-0.28352 0.3941,-0.63005 0.18367,-0.73181 0.80914,-0.94931 2.74442,-0.95434 1.21426,-0.003 1.3895,0.0631 1.3895,0.52572 0,0.45214 -0.17644,0.52933 -1.2099,0.52933 -1.37392,0 -1.9661,0.43275 -1.9661,1.43676 0,0.63016 0.0882,0.68058 1.191,0.68058 1.01456,0 1.191,0.0784 1.191,0.52933 0,0.45091 -0.17644,0.52933 -1.191,0.52933 -1.191,0 -1.191,0 -1.191,3.573 0,3.573 0,3.573 -0.794,3.573 -0.794,0 -0.794,0 -0.794,-4.89633 z m 6.81517,4.71195 c -0.25474,-0.0655 -0.46317,-0.22946 -0.46317,-0.36436 0,-0.13489 -0.17325,-0.24526 -0.38501,-0.24526 -0.47784,0 -0.79136,-1.50822 -0.54587,-2.62597 0.0984,-0.44808 0.3382,-0.81469 0.53286,-0.81469 0.19465,0 0.40293,-0.14707 0.46285,-0.32681 0.0708,-0.21236 0.86637,-0.36121 2.27172,-0.42502 2.07262,-0.0941 2.16279,-0.12443 2.16279,-0.72682 0,-0.44978 -0.18823,-0.67584 -0.66167,-0.79467 -0.36392,-0.0913 -0.66167,-0.27226 -0.66167,-0.40204 0,-0.12979 -0.53595,-0.23598 -1.191,-0.23598 -0.65505,0 -1.191,0.1191 -1.191,0.26467 0,0.14557 -0.2382,0.26467 -0.52933,0.26467 -0.38463,0 -0.52933,-0.17645 -0.52933,-0.64545 0,-0.5637 0.15345,-0.66846 1.21163,-0.82715 2.65274,-0.3978 4.61103,0.36499 4.61103,1.79608 0,0.40435 0.1191,0.73518 0.26467,0.73518 0.30768,0 0.37345,5.28194 0.0662,5.31413 -1.03023,0.10795 -5.06516,0.15219 -5.42567,0.0595 z m 2.71283,-1.13895 c 0,-0.14557 0.29775,-0.26467 0.66167,-0.26467 0.60775,0 0.66167,-0.097 0.66167,-1.191 0,-1.191 0,-1.191 -1.588,-1.191 -0.88223,0 -1.588,0.11763 -1.588,0.26467 0,0.14557 -0.17865,0.26467 -0.397,0.26467 -0.27727,0 -0.397,0.27937 -0.397,0.92633 0,0.64696 0.11973,0.92633 0.397,0.92633 0.21835,0 0.397,0.1191 0.397,0.26467 0,0.14557 0.41685,0.26467 0.92633,0.26467 0.50948,0 0.92633,-0.1191 0.92633,-0.26467 z m 4.49934,0.91803 c 0,-0.22292 0.17865,-0.47386 0.397,-0.55765 0.21835,-0.0838 0.397,-0.31942 0.397,-0.52362 0,-0.2042 0.2382,-0.57523 0.52933,-0.8245 0.29113,-0.24928 0.52933,-0.60541 0.52933,-0.79141 0,-0.186 0.10636,-0.33818 0.23635,-0.33818 0.50852,0 0.52356,-0.82838 0.0228,-1.25713 -0.28811,-0.24668 -0.52383,-0.60069 -0.52383,-0.78669 0,-0.186 -0.11684,-0.33818 -0.25963,-0.33818 -0.14279,0 -0.33219,-0.28914 -0.42089,-0.64252 -0.0887,-0.35338 -0.32916,-0.70694 -0.53437,-0.78569 -0.54705,-0.20992 -0.45535,-0.95379 0.11757,-0.95379 0.52376,0 1.89132,1.12543 1.89132,1.55645 0,0.39129 0.78098,1.09021 1.21821,1.09021 0.21252,0 0.46311,-0.20842 0.55687,-0.46316 0.0938,-0.25475 0.44732,-0.72546 0.78569,-1.04603 0.33838,-0.32058 0.61523,-0.70765 0.61523,-0.86017 0,-0.15252 0.3573,-0.2773 0.794,-0.2773 0.96751,0 1.0079,0.35637 0.13233,1.16782 -0.36392,0.33726 -0.66167,0.72196 -0.66167,0.85487 0,0.13292 -0.2382,0.44562 -0.52933,0.6949 -0.29113,0.24927 -0.52933,0.62312 -0.52933,0.83076 0,0.20764 -0.14888,0.43761 -0.33084,0.51103 -0.26466,0.1068 -0.26466,0.13767 0,0.15439 0.18196,0.0115 0.33084,0.20071 0.33084,0.42048 0,0.21978 0.2382,0.60355 0.52933,0.85282 0.29113,0.24928 0.52933,0.56198 0.52933,0.6949 0,0.13291 0.29775,0.51761 0.66167,0.85487 0.83432,0.77323 0.84163,1.16782 0.0217,1.16782 -0.91533,0 -1.47732,-0.26346 -1.47732,-0.69257 0,-0.2042 -0.2382,-0.57523 -0.52933,-0.8245 -0.29113,-0.24928 -0.52933,-0.60541 -0.52933,-0.79141 0,-0.186 -0.10937,-0.33818 -0.24302,-0.33818 -0.54434,0 -1.08032,0.3436 -1.08032,0.69257 0,0.2042 -0.2382,0.57523 -0.52933,0.8245 -0.29113,0.24928 -0.52933,0.60541 -0.52933,0.79141 0,0.19932 -0.32605,0.33818 -0.794,0.33818 -0.53657,0 -0.794,-0.13141 -0.794,-0.4053 z m 10.322,-0.10726 c 0,-0.30036 -0.10741,-0.5461 -0.23868,-0.5461 -0.13128,0 -0.32162,-0.7146 -0.42299,-1.588 -0.10137,-0.8734 -0.28002,-1.588 -0.397,-1.588 -0.11698,0 -0.29563,-0.7146 -0.397,-1.588 -0.10137,-0.8734 -0.29171,-1.588 -0.42299,-1.588 -0.13127,0 -0.23868,-0.17865 -0.23868,-0.397 0,-0.26467 0.26467,-0.397 0.794,-0.397 0.61756,0 0.794,0.11762 0.794,0.52933 0,0.29113 0.10371,0.52933 0.23047,0.52933 0.12676,0 0.31262,0.8337 0.41303,1.85267 0.1004,1.01897 0.29444,1.85267 0.43119,1.85267 0.13676,0 0.24864,0.23446 0.24864,0.52102 0,0.33662 0.1305,0.47096 0.36869,0.37955 0.21735,-0.0834 0.44244,-0.73181 0.54838,-1.57969 0.0988,-0.79102 0.28292,-1.43822 0.40909,-1.43822 0.12618,0 0.30919,-0.53203 0.4067,-1.18228 0.12435,-0.82916 0.32682,-1.22975 0.67789,-1.34117 0.98226,-0.31176 1.49228,0.0956 1.67906,1.34117 0.0975,0.65025 0.27558,1.18228 0.39569,1.18228 0.12012,0 0.29877,0.53595 0.397,1.191 0.0982,0.65505 0.28168,1.191 0.40765,1.191 0.12597,0 0.28351,0.20843 0.35008,0.46317 0.0911,0.34854 0.12864,0.31579 0.15174,-0.13233 0.0169,-0.32753 0.14259,-0.5955 0.27934,-0.5955 0.13675,0 0.33079,-0.8337 0.4312,-1.85267 0.10041,-1.01897 0.28627,-1.85267 0.41303,-1.85267 0.12675,0 0.23046,-0.2382 0.23046,-0.52933 0,-0.41171 0.17645,-0.52933 0.794,-0.52933 0.52934,0 0.794,0.13233 0.794,0.397 0,0.21835 -0.1074,0.397 -0.23867,0.397 -0.13128,0 -0.32162,0.7146 -0.42299,1.588 -0.10137,0.8734 -0.27637,1.588 -0.38889,1.588 -0.11252,0 -0.28358,0.5955 -0.38013,1.32333 -0.0966,0.72783 -0.29055,1.32333 -0.4311,1.32333 -0.14055,0 -0.25555,0.36485 -0.25555,0.81077 0,0.75528 -0.0589,0.80509 -0.86017,0.72784 -0.71673,-0.0691 -0.87413,-0.2043 -0.94391,-0.81077 -0.0461,-0.40031 -0.18764,-0.72784 -0.31461,-0.72784 -0.12698,0 -0.31124,-0.53595 -0.40948,-1.191 -0.0982,-0.65505 -0.27878,-1.191 -0.40122,-1.191 -0.12244,0 -0.30083,-0.41685 -0.3964,-0.92633 -0.0956,-0.50948 -0.27423,-0.92633 -0.397,-0.92633 -0.12278,0 -0.30143,0.41685 -0.397,0.92633 -0.0956,0.50948 -0.26611,0.92633 -0.37895,0.92633 -0.11283,0 -0.28553,0.53595 -0.38376,1.191 -0.0982,0.65505 -0.28249,1.191 -0.40947,1.191 -0.12698,0 -0.26856,0.32753 -0.31462,0.72784 -0.0698,0.60647 -0.22717,0.74166 -0.94391,0.81077 -0.71932,0.0694 -0.86016,-0.006 -0.86016,-0.46317 z m 12.63783,0.33012 c -0.25474,-0.0666 -0.46317,-0.2314 -0.46317,-0.3663 0,-0.13489 -0.18239,-0.24526 -0.4053,-0.24526 -0.22292,0 -0.48221,-0.20842 -0.5762,-0.46316 -0.094,-0.25475 -0.28875,-0.54202 -0.43281,-0.63838 -0.38043,-0.2545 -0.33764,-4.26947 0.0469,-4.39764 0.16982,-0.0566 0.30877,-0.27539 0.30877,-0.48618 0,-0.21079 0.20843,-0.46015 0.46317,-0.55414 0.25474,-0.094 0.54815,-0.29867 0.65202,-0.45486 0.10386,-0.15618 0.94672,-0.28397 1.87302,-0.28397 1.53884,0 1.75665,0.0725 2.52399,0.83981 0.67337,0.67337 0.8398,1.05739 0.8398,1.93774 0,1.64289 -0.36292,1.85412 -3.18578,1.85412 -2.4296,0 -2.4296,0 -2.24759,0.72518 0.18798,0.74895 0.5584,1.1164 1.13254,1.12343 0.18196,0.002 0.33083,0.12315 0.33083,0.26872 0,0.1493 0.74989,0.26467 1.72034,0.26467 1.54389,0 1.72033,0.0543 1.72033,0.52933 0,0.48348 -0.16621,0.52667 -1.91883,0.49863 -1.05536,-0.0169 -2.12726,-0.0852 -2.382,-0.15174 z m 3.36698,-4.83405 c 0.25553,-0.41347 -0.15273,-1.60017 -0.55051,-1.60017 -0.20257,0 -0.36831,-0.1191 -0.36831,-0.26467 0,-0.14557 -0.42253,-0.26467 -0.93897,-0.26467 -1.2962,0 -2.73071,1.53543 -2.06058,2.20556 0.2747,0.2747 3.74319,0.20738 3.91837,-0.076 z m 4.30835,4.85085 c -0.42149,-0.12543 -0.46317,-0.62423 -0.46317,-5.5441 0,-5.22981 0.0173,-5.40626 0.52934,-5.40626 0.46873,0 0.52933,0.17645 0.52933,1.54119 0,1.54118 0,1.54118 2.07055,1.52388 1.95309,-0.0163 2.11074,0.0261 2.779,0.74713 0.38965,0.42044 0.70845,0.92569 0.70845,1.12278 0,0.1971 0.1191,0.35836 0.26467,0.35836 0.1493,0 0.26466,0.74988 0.26466,1.72033 0,0.97045 -0.11536,1.72033 -0.26466,1.72033 -0.14557,0 -0.26467,0.16126 -0.26467,0.35836 0,0.19709 -0.30468,0.6871 -0.67706,1.08891 -0.61559,0.66423 -0.87393,0.73857 -2.84517,0.81875 -1.19246,0.0485 -2.37653,0.0261 -2.63127,-0.0497 z m 3.50683,-1.15769 c 0,-0.14557 0.15219,-0.26467 0.33818,-0.26467 1.22467,0 1.84822,-3.26507 0.8469,-4.43453 -0.2798,-0.32678 -0.6609,-0.59413 -0.8469,-0.59413 -0.18599,0 -0.33818,-0.1191 -0.33818,-0.26467 0,-0.14557 -0.3573,-0.26467 -0.794,-0.26467 -0.4367,0 -0.794,0.1191 -0.794,0.26467 0,0.14557 -0.29775,0.26467 -0.66166,0.26467 -0.657,0 -0.66167,0.0169 -0.66167,2.39317 0,1.53768 0.11826,2.52749 0.33083,2.76893 0.37557,0.42657 2.5805,0.5387 2.5805,0.13123 z m -80.289411,-4.41831 c -0.09309,-0.0931 -0.169249,-1.34039 -0.169249,-2.7718 0,-2.60256 0,-2.60256 1.455666,-2.60256 1.102774,0 1.583994,0.12833 1.985004,0.52934 0.70529,0.70529 0.66982,0.97972 -0.23599,1.82587 -0.765316,0.71491 -0.765316,0.71491 0,1.74134 0.8054,1.08017 0.93669,1.46145 0.50322,1.46145 -0.27095,0 -2.101703,-2.35575 -2.113339,-2.71938 -0.0036,-0.11278 0.294241,-0.31942 0.661888,-0.45919 1.411631,-0.53671 1.008041,-1.85009 -0.568523,-1.85009 -0.893926,0 -0.893926,0 -0.893926,2.36638 0,2.1734 -0.18722,2.91618 -0.624751,2.47864 z"
         id="path2959" />
      <path
         style="fill:#529eb7;stroke-width:0.264667"
         d="m 95.812797,116.91881 c -2.163825,-0.7125 -3.593736,-1.62533 -5.190182,-3.31334 -4.032248,-4.2635 -4.514869,-10.42803 -1.206618,-15.412117 2.501029,-3.767959 7.580675,-5.957876 11.951563,-5.152508 1.50261,0.276866 4.29145,1.246876 4.29145,1.492643 0,0.08995 -2.65197,4.707246 -2.77842,4.837464 -0.0455,0.04685 -0.63413,-0.102025 -1.30807,-0.330834 -2.097161,-0.712004 -3.888182,-0.403636 -5.948531,1.024182 -3.151953,2.18431 -3.406965,7.11969 -0.508675,9.84467 1.832377,1.72281 3.86129,2.23596 6.177886,1.56251 2.89677,-0.84212 4.72587,-3.25365 4.72587,-6.23071 0,-1.66915 -0.68274,-3.64747 -1.41495,-4.1 -0.46991,-0.29042 -0.2744,-0.76573 0.80693,-1.961802 1.05366,-1.165469 1.05366,-1.165469 1.72088,-0.538656 0.36696,0.344748 1.02438,1.352321 1.46091,2.239048 1.43445,2.91379 1.29281,6.49788 -0.37478,9.48316 -0.56945,1.01943 -0.56945,1.01943 0.15608,1.59795 0.39904,0.31818 0.72553,0.7128 0.72553,0.87692 0,0.57925 -2.53891,2.54589 -4.49933,3.48517 -1.81327,0.86878 -2.21397,0.95721 -4.631667,1.02213 -2.024769,0.0544 -3.001291,-0.0457 -4.155876,-0.42588 z m 19.969713,-3.38399 c -0.24304,-0.0981 -0.33084,-1.13859 -0.33084,-3.92079 0,-3.20936 0.0639,-3.81181 0.41865,-3.94794 0.66228,-0.25414 0.90469,-0.19082 0.90469,0.23635 0,0.42688 0.95638,0.55862 1.10277,0.1519 0.0485,-0.13481 0.41575,-0.32637 0.81606,-0.42569 0.62097,-0.15408 0.72783,-0.0987 0.72783,0.37743 0,0.38158 -0.16737,0.55802 -0.52933,0.55802 -0.29113,0 -0.52933,0.10619 -0.52933,0.23598 0,0.12978 -0.29775,0.3107 -0.66167,0.40204 -0.65972,0.16558 -0.66167,0.1754 -0.66167,3.33703 0,2.85147 -0.0467,3.16885 -0.46316,3.15006 -0.25475,-0.0115 -0.61205,-0.081 -0.794,-0.15439 z m 6.45899,-0.02 c -1.06233,-0.2565 -1.49649,-0.9293 -1.49649,-2.31904 0,-1.91535 0.55019,-2.31787 3.37058,-2.4659 1.62355,-0.0852 2.18742,-0.20859 2.18742,-0.47862 0,-0.2001 -0.1191,-0.36381 -0.26467,-0.36381 -0.14557,0 -0.26467,-0.17865 -0.26467,-0.397 0,-0.21835 -0.17865,-0.397 -0.397,-0.397 -0.21835,0 -0.397,-0.1191 -0.397,-0.26467 0,-0.14557 -0.5955,-0.26467 -1.32333,-0.26467 -0.72783,0 -1.32333,0.1191 -1.32333,0.26467 0,0.37067 -0.50201,0.32981 -0.90551,-0.0737 -0.27471,-0.2747 -0.25982,-0.41163 0.0791,-0.72783 0.29754,-0.27757 1.00061,-0.38294 2.44698,-0.36674 1.87047,0.0209 2.08348,0.081 2.71876,0.76648 0.66375,0.7162 0.68926,0.86241 0.68871,3.94727 -5.3e-4,3.20352 -5.3e-4,3.20352 -2.31584,3.23102 -1.27339,0.0151 -2.53508,-0.0256 -2.80376,-0.0905 z m 2.73817,-1.09935 c 0,-0.12978 0.29775,-0.3107 0.66167,-0.40204 0.48958,-0.12288 0.66167,-0.34176 0.66167,-0.8416 0,-1.03002 -0.58877,-1.43172 -2.09843,-1.43172 -2.02991,0 -3.00651,1.18939 -1.93774,2.35995 0.47922,0.52486 2.71283,0.78456 2.71283,0.31541 z m 4.764,-3.60169 c 0,-2.69298 0.10619,-4.89633 0.23598,-4.89633 0.12978,0 0.30713,-0.28352 0.3941,-0.63005 0.18367,-0.73181 0.80914,-0.94931 2.74442,-0.95434 1.21426,-0.003 1.3895,0.0631 1.3895,0.52572 0,0.45214 -0.17644,0.52933 -1.2099,0.52933 -1.51208,0 -2.11989,0.53899 -1.99746,1.77128 0.0174,0.17528 0.5305,0.35181 1.15391,0.397 0.81886,0.0594 1.14632,0.20669 1.21041,0.54456 0.073,0.38509 -0.11141,0.46316 -1.09424,0.46316 -0.83375,0 -1.22943,0.12337 -1.34273,0.41865 -0.0884,0.23025 -0.16065,1.8381 -0.16065,3.573 0,3.15435 0,3.15435 -0.66167,3.15435 -0.66167,0 -0.66167,0 -0.66167,-4.89633 z m 6.91442,4.70617 c -1.52797,-0.59062 -2.01757,-2.85401 -0.86638,-4.00521 0.51462,-0.51462 0.98428,-0.64717 2.71283,-0.76565 1.80897,-0.12399 2.09047,-0.20947 2.09047,-0.6348 0,-0.96675 -0.94631,-1.55018 -2.51434,-1.55018 -0.80061,0 -1.45566,0.1191 -1.45566,0.26467 0,0.14557 -0.17865,0.26467 -0.397,0.26467 -0.24127,0 -0.397,-0.24618 -0.397,-0.62757 0,-0.55192 0.15705,-0.64841 1.30286,-0.8004 1.38639,-0.18391 3.46114,0.0392 3.46114,0.37226 0,0.10998 0.2382,0.26226 0.52933,0.33839 0.496,0.12971 0.5293,0.36081 0.52888,3.67004 -5.3e-4,3.53161 -5.3e-4,3.53161 -2.31584,3.57303 -1.27346,0.0228 -2.47914,-0.0219 -2.67929,-0.0992 z m 3.14292,-1.13317 c 0,-0.14557 0.17865,-0.26467 0.397,-0.26467 0.29407,0 0.397,-0.30878 0.397,-1.191 0,-1.191 0,-1.191 -1.82435,-1.191 -1.93934,0 -2.14565,0.13997 -2.14565,1.45567 0,1.25756 0.23797,1.45567 1.74865,1.45567 0.78504,0 1.42735,-0.1191 1.42735,-0.26467 z m 3.97,0.91803 c 0,-0.22292 0.17865,-0.47386 0.397,-0.55765 0.21835,-0.0838 0.397,-0.31942 0.397,-0.52362 0,-0.2042 0.2382,-0.57523 0.52933,-0.8245 0.29113,-0.24928 0.52933,-0.60541 0.52933,-0.79141 0,-0.186 0.10636,-0.33818 0.23635,-0.33818 0.43859,0 0.53812,-0.77573 0.14941,-1.16444 -0.21217,-0.21216 -0.38576,-0.48689 -0.38576,-0.61051 0,-0.12361 -0.2382,-0.4287 -0.52933,-0.67798 -0.29113,-0.24927 -0.52933,-0.6203 -0.52933,-0.8245 0,-0.2042 -0.17865,-0.43983 -0.397,-0.52362 -0.5652,-0.21688 -0.49262,-0.96295 0.0937,-0.96295 0.52376,0 1.89132,1.12543 1.89132,1.55645 0,0.39129 0.78098,1.09021 1.21821,1.09021 0.21252,0 0.46601,-0.20842 0.56332,-0.46316 0.31077,-0.81357 1.82513,-2.1835 2.4137,-2.1835 0.75211,0 0.71907,0.4153 -0.0929,1.16782 -0.36392,0.33726 -0.66167,0.72196 -0.66167,0.85487 0,0.13292 -0.2382,0.44562 -0.52933,0.6949 -0.29113,0.24927 -0.52933,0.63304 -0.52933,0.85282 0,0.21977 -0.14888,0.40141 -0.33084,0.40364 -0.2325,0.003 -0.2431,0.0619 -0.0357,0.1985 0.16234,0.10694 0.37879,0.46242 0.481,0.78995 0.10221,0.32752 0.29692,0.5955 0.43267,0.5955 0.13576,0 0.24684,0.15446 0.24684,0.34325 0,0.18878 0.35225,0.63541 0.78279,0.9925 1.01482,0.84169 1.01883,1.31091 0.0112,1.31091 -0.4367,0 -0.794,-0.12478 -0.794,-0.2773 0,-0.15252 -0.27685,-0.53959 -0.61523,-0.86017 -0.33837,-0.32057 -0.69193,-0.79129 -0.78569,-1.04603 -0.0938,-0.25474 -0.34435,-0.46316 -0.55687,-0.46316 -0.43723,0 -1.21821,0.69892 -1.21821,1.09021 0,0.43102 -1.36756,1.55645 -1.89132,1.55645 -0.26988,0 -0.49068,-0.18238 -0.49068,-0.4053 z m 10.322,-0.3887 c 0,-0.4367 -0.10538,-0.794 -0.23418,-0.794 -0.12879,0 -0.31953,-0.68482 -0.42386,-1.52183 -0.10433,-0.83701 -0.28758,-1.58277 -0.40722,-1.65725 -0.11963,-0.0745 -0.30293,-0.89037 -0.40732,-1.81307 -0.17589,-1.5546 -0.15311,-1.67068 0.31055,-1.58265 0.3179,0.0603 0.5309,0.35957 0.5841,0.82057 0.0461,0.39906 0.18325,0.72557 0.30485,0.72557 0.12161,0 0.30404,0.7146 0.40541,1.588 0.10137,0.8734 0.29171,1.588 0.42299,1.588 0.13127,0 0.23867,0.23446 0.23867,0.52102 0,1.00593 0.737,0.25229 0.91517,-0.93583 0.0968,-0.64526 0.27656,-1.17319 0.39955,-1.17319 0.12299,0 0.30875,-0.62528 0.41281,-1.3895 0.10407,-0.76423 0.32367,-1.47701 0.48801,-1.58395 0.51301,-0.33385 1.22513,-0.22082 1.22513,0.19445 0,0.21835 0.1118,0.397 0.24845,0.397 0.13665,0 0.32882,0.53595 0.42705,1.191 0.0982,0.65505 0.27093,1.191 0.38376,1.191 0.11284,0 0.28337,0.41685 0.37895,0.92633 0.0956,0.50948 0.27957,0.92633 0.40887,0.92633 0.1293,0 0.28471,0.32753 0.34535,0.72784 0.11026,0.72783 0.11026,0.72783 0.14992,0 0.0218,-0.40031 0.14488,-0.72784 0.27348,-0.72784 0.12861,0 0.31674,-0.77415 0.41807,-1.72033 0.10133,-0.94618 0.29385,-1.72033 0.42783,-1.72033 0.13399,0 0.2436,-0.3573 0.2436,-0.794 0,-0.58129 0.12409,-0.79292 0.46317,-0.78995 0.65959,0.006 1.35488,0.52579 0.93281,0.69766 -0.17839,0.0726 -0.40216,0.71863 -0.49726,1.43552 -0.0951,0.71689 -0.26497,1.30343 -0.37749,1.30343 -0.11252,0 -0.28752,0.7146 -0.38889,1.588 -0.10137,0.8734 -0.2838,1.588 -0.40541,1.588 -0.1216,0 -0.25879,0.32753 -0.30485,0.72784 -0.0706,0.61364 -0.20831,0.72783 -0.87774,0.72783 -0.66944,0 -0.80714,-0.11419 -0.87775,-0.72783 -0.0461,-0.40031 -0.18764,-0.72784 -0.31461,-0.72784 -0.12698,0 -0.31124,-0.53595 -0.40948,-1.191 -0.0982,-0.65505 -0.27092,-1.191 -0.38376,-1.191 -0.11284,0 -0.28479,-0.4245 -0.38213,-0.94332 -0.20363,-1.08544 -0.76478,-1.10353 -0.89202,-0.0288 -0.0461,0.38909 -0.18764,0.70743 -0.31461,0.70743 -0.12698,0 -0.31124,0.53595 -0.40948,1.191 -0.0982,0.65505 -0.27092,1.191 -0.38376,1.191 -0.11284,0 -0.28336,0.41685 -0.37894,0.92633 -0.15204,0.81045 -0.27161,0.92633 -0.95579,0.92633 -0.69245,0 -0.782,-0.0909 -0.782,-0.794 z m 13.0238,0.61126 c -0.33359,-0.0669 -1.01842,-0.53352 -1.52184,-1.03693 -0.89077,-0.89077 -0.9153,-0.97182 -0.9153,-3.02381 0,-1.22924 0.11037,-2.10852 0.26467,-2.10852 0.14556,0 0.26466,-0.18238 0.26466,-0.4053 0,-0.22292 0.20843,-0.48221 0.46317,-0.5762 0.25474,-0.094 0.54272,-0.28988 0.63994,-0.43532 0.0972,-0.14545 0.94007,-0.27323 1.87298,-0.28398 1.56446,-0.018 1.76143,0.0457 2.53606,0.82028 0.69871,0.69867 0.83985,1.04339 0.83985,2.05116 0,1.21136 0,1.21136 -2.61835,1.21136 -2.14181,0 -2.64754,0.0761 -2.77876,0.41803 -0.28198,0.73485 0.12778,1.69525 0.79472,1.86263 0.34782,0.0873 0.63239,0.26492 0.63239,0.3947 0,0.12979 0.78289,0.23598 1.73974,0.23598 1.51407,0 1.7283,0.0601 1.65151,0.46316 -0.0714,0.37474 -0.3909,0.46997 -1.67357,0.49878 -0.87194,0.0196 -1.85828,-0.0191 -2.19187,-0.086 z m 2.98101,-4.83375 c 0.25553,-0.41347 -0.15273,-1.60017 -0.55051,-1.60017 -0.20257,0 -0.36831,-0.1191 -0.36831,-0.26467 0,-0.14557 -0.42253,-0.26467 -0.93897,-0.26467 -1.03861,0 -2.23703,1.01322 -2.23703,1.89132 0,0.43384 0.22815,0.49068 1.96938,0.49068 1.08316,0 2.03961,-0.11362 2.12544,-0.25249 z m 4.44068,4.84637 c -0.59383,-0.13099 -0.5955,-0.14646 -0.5955,-5.53862 0,-5.23081 0.0173,-5.40726 0.52934,-5.40726 0.46873,0 0.52933,0.17645 0.52933,1.54119 0,1.54118 0,1.54118 2.07055,1.52388 1.95309,-0.0163 2.11074,0.0261 2.779,0.74713 0.38965,0.42044 0.70845,0.92569 0.70845,1.12278 0,0.1971 0.1191,0.35836 0.26467,0.35836 0.14704,0 0.26466,0.70578 0.26466,1.588 0,0.88222 -0.11762,1.588 -0.26466,1.588 -0.14557,0 -0.26467,0.22081 -0.26467,0.49068 0,0.26988 -0.30282,0.81744 -0.67294,1.2168 -0.60294,0.65058 -0.88513,0.73518 -2.71283,0.81327 -1.12194,0.0479 -2.30787,0.028 -2.6354,-0.0442 z m 4.24164,-1.71497 c 0.7049,-0.7049 0.8284,-1.02598 0.83981,-2.1835 0.0137,-1.38571 -0.61072,-2.54807 -1.36877,-2.54807 -0.18599,0 -0.33818,-0.1191 -0.33818,-0.26467 0,-0.14557 -0.3573,-0.26467 -0.794,-0.26467 -0.4367,0 -0.794,0.1191 -0.794,0.26467 0,0.14557 -0.29775,0.26467 -0.66166,0.26467 -0.657,0 -0.66167,0.0169 -0.66167,2.39317 0,2.80237 0.19371,3.14058 1.80686,3.15476 0.93687,0.008 1.29553,-0.14027 1.97161,-0.81636 z m -81.269218,-6.51807 c 0.07575,-2.5805 0.07575,-2.5805 1.624724,-2.57257 1.213544,0.006 1.629064,0.11748 1.918834,0.51376 0.51666,0.70657 0.4741,0.88889 -0.39756,1.70314 -0.767424,0.71688 -0.767424,0.71688 -0.25714,1.36336 0.89338,1.13181 1.08453,1.57281 0.68174,1.57281 -0.33216,0 -2.215491,-2.33246 -2.001022,-2.47821 0.0518,-0.0352 0.4217,-0.2689 0.822008,-0.51933 1.314384,-0.82228 0.843044,-1.76646 -0.881812,-1.76646 -0.772354,0 -0.772354,0 -0.772354,2.382 0,1.96584 -0.07103,2.382 -0.406584,2.382 -0.343047,0 -0.394747,-0.40326 -0.330834,-2.5805 z"
         id="path2957" />
      <path
         style="fill:#098aab;stroke-width:0.264667"
         d="m 96.560924,117.12141 c -2.446136,-0.57437 -5.338522,-2.53728 -6.935829,-4.70699 -4.518561,-6.1378 -2.16218,-15.071589 4.841792,-18.356762 1.542704,-0.723597 2.158893,-0.8574 4.362403,-0.947284 2.07218,-0.08453 2.91253,0.0025 4.367,0.452155 0.99058,0.306253 1.94678,0.652454 2.1249,0.769337 0.28679,0.188192 -0.29671,1.390931 -2.42975,5.008349 -0.0177,0.02994 -0.5634,-0.130795 -1.21277,-0.3572 -1.63709,-0.570781 -3.886176,-0.342715 -5.406465,0.548234 -3.739015,2.191211 -4.396585,7.290731 -1.334915,10.352401 3.450045,3.45004 9.33285,1.96459 10.94441,-2.76354 0.61585,-1.80686 0.20123,-4.13893 -1.04772,-5.89291 -0.5715,-0.8026 -0.5715,-0.8026 0.63338,-2.007484 1.20488,-1.20488 1.20488,-1.20488 2.0864,0.04574 1.44781,2.054024 1.88938,3.445414 1.90769,6.011134 0.015,2.09874 -0.0597,2.43864 -0.91415,4.16 -0.93047,1.87452 -0.93047,1.87452 -0.18057,2.62442 0.74991,0.7499 0.74991,0.7499 -0.25107,1.76602 -2.91086,2.95485 -7.46768,4.25405 -11.554736,3.29438 z m 19.420086,-7.38131 c 0,-3.35244 0.0618,-3.97 0.397,-3.97 0.21835,0 0.397,0.1675 0.397,0.37222 0,0.24192 0.1853,0.32377 0.52933,0.2338 0.29113,-0.0761 0.52933,-0.24363 0.52933,-0.37222 0,-0.12859 0.3573,-0.2338 0.794,-0.2338 0.52934,0 0.794,0.13234 0.794,0.397 0,0.22056 -0.23526,0.397 -0.52933,0.397 -0.29113,0 -0.52933,0.10619 -0.52933,0.23598 0,0.12978 -0.29775,0.3107 -0.66167,0.40204 -0.65972,0.16558 -0.66167,0.1754 -0.66167,3.33703 0,2.99451 -0.0294,3.17095 -0.52933,3.17095 -0.50581,0 -0.52933,-0.17644 -0.52933,-3.97 z m 6.5505,3.78312 c -0.40031,-0.0621 -0.72784,-0.22413 -0.72784,-0.36003 0,-0.1359 -0.17325,-0.24709 -0.38501,-0.24709 -0.47784,0 -0.79136,-1.50822 -0.54587,-2.62597 0.0984,-0.44808 0.3382,-0.81469 0.53286,-0.81469 0.19465,0 0.39439,-0.12144 0.44386,-0.26986 0.0495,-0.14842 0.86333,-0.27512 1.80856,-0.28157 2.17797,-0.0148 2.64494,-0.15427 2.64494,-0.78974 0,-1.04312 -0.9254,-1.57017 -2.75695,-1.57017 -1.11098,0 -1.74444,0.11441 -1.83177,0.33084 -0.0734,0.18195 -0.1429,0.003 -0.15439,-0.397 -0.0209,-0.72784 -0.0209,-0.72784 2.09644,-0.72784 1.16453,0 2.11733,0.10619 2.11733,0.23598 0,0.12978 0.28352,0.30713 0.63004,0.3941 0.82627,0.20738 0.95002,0.76916 0.95435,4.33242 0.003,2.42655 -0.0674,2.9775 -0.38024,2.9775 -0.21111,0 -0.50668,-0.20842 -0.65682,-0.46316 -0.18579,-0.31524 -0.33792,-0.36924 -0.47632,-0.16907 -0.23523,0.34022 -2.24755,0.61071 -3.31317,0.44535 z m 2.9775,-1.13645 c 0,-0.14557 0.17865,-0.26467 0.397,-0.26467 0.29407,0 0.397,-0.30878 0.397,-1.191 0,-1.191 0,-1.191 -1.72034,-1.191 -1.36744,0 -1.82891,0.10859 -2.24966,0.52934 -0.60196,0.60195 -0.68506,1.43346 -0.1985,1.9861 0.38373,0.43585 3.3745,0.55216 3.3745,0.13123 z m 4.23466,-3.176 c 0,-2.82311 0.0986,-4.49933 0.26467,-4.49933 0.14557,0 0.26467,-0.27128 0.26467,-0.60285 0,-1.01198 0.99885,-1.63255 2.63991,-1.64013 1.10201,-0.005 1.46863,0.0918 1.53123,0.40449 0.0666,0.33288 -0.19238,0.40848 -1.36019,0.397 -0.79338,-0.008 -1.52804,0.0711 -1.63258,0.1754 -0.10455,0.10426 -0.20402,0.64021 -0.22106,1.191 -0.0308,0.99455 -0.0233,1.00198 1.09385,1.0828 0.76587,0.0554 1.12484,0.20323 1.12484,0.46317 0,0.27604 -0.32988,0.38178 -1.191,0.38178 -1.191,0 -1.191,0 -1.191,3.573 0,3.573 0,3.573 -0.66167,3.573 -0.66167,0 -0.66167,0 -0.66167,-4.49933 z m 7.19098,4.32288 c -1.07188,-0.22697 -1.63298,-1.03027 -1.63298,-2.33788 0,-1.86049 0.59245,-2.28317 3.19221,-2.27746 2.10113,0.005 2.10113,0.005 2.10113,-0.91013 0,-0.63666 -0.12069,-0.91474 -0.397,-0.91474 -0.21835,0 -0.397,-0.1191 -0.397,-0.26467 0,-0.40238 -3.63121,-0.33906 -3.79472,0.0662 -0.0734,0.18195 -0.1429,0.003 -0.15439,-0.397 -0.0209,-0.72784 -0.0209,-0.72784 2.24141,-0.72784 2.10645,0 2.30702,0.0482 2.91133,0.70032 0.61593,0.66459 0.64903,0.86665 0.64903,3.96169 0,2.79027 -0.0574,3.23937 -0.397,3.10904 -0.21835,-0.0838 -0.397,-0.2587 -0.397,-0.3887 0,-0.32229 -0.72809,-0.30085 -0.83811,0.0247 -0.10311,0.30508 -2.19099,0.54622 -3.08691,0.35651 z m 2.86636,-1.14688 c 0,-0.14557 0.17865,-0.26467 0.397,-0.26467 0.29407,0 0.397,-0.30878 0.397,-1.191 0,-1.191 0,-1.191 -1.83484,-1.191 -1.67128,0 -1.85139,0.0531 -2.02067,0.5955 -0.10221,0.32753 -0.31866,0.683 -0.481,0.78995 -0.21503,0.14166 -0.21314,0.19555 0.007,0.1985 0.16618,0.002 0.37687,0.3018 0.46821,0.66572 0.15187,0.6051 0.29009,0.66167 1.61669,0.66167 0.79784,0 1.45062,-0.1191 1.45062,-0.26467 z m 4.15708,0.86017 c 0.0938,-0.25475 0.44732,-0.72546 0.78569,-1.04603 0.33838,-0.32058 0.61523,-0.69915 0.61523,-0.84126 0,-0.14212 0.19353,-0.45194 0.43008,-0.68849 0.62752,-0.62752 0.52623,-1.64626 -0.23372,-2.35056 -0.36509,-0.33835 -0.74181,-0.86098 -0.83716,-1.16139 -0.0953,-0.30041 -0.34747,-0.61302 -0.56028,-0.69468 -0.6674,-0.25611 -0.42171,-0.69443 0.38924,-0.69443 0.56245,0 0.82603,0.15713 0.95728,0.57066 0.0996,0.31386 0.46495,0.83369 0.81184,1.15518 0.34689,0.32149 0.63072,0.72891 0.63072,0.90537 0,0.17646 0.3573,-0.0365 0.794,-0.47315 0.4367,-0.4367 0.794,-0.8958 0.794,-1.02021 0,-0.3462 1.01487,-1.13785 1.45869,-1.13785 0.56394,0 0.48609,0.72031 -0.13536,1.25241 -0.29113,0.24928 -0.52933,0.56198 -0.52933,0.6949 0,0.13291 -0.29775,0.51761 -0.66167,0.85487 -0.73943,0.68528 -0.86871,1.56107 -0.26467,1.79287 0.21835,0.0838 0.397,0.2913 0.397,0.46113 0,0.16984 0.29775,0.58474 0.66167,0.922 0.36392,0.33727 0.66167,0.7295 0.66167,0.87161 0,0.14212 0.18715,0.44556 0.4159,0.67431 0.3781,0.37809 0.36344,0.4159 -0.16119,0.4159 -0.5621,0 -1.82899,-0.9717 -1.83814,-1.40986 -0.007,-0.35703 -1.59257,-1.83608 -1.59257,-1.48601 0,0.17646 -0.29775,0.59679 -0.66167,0.93405 -0.36392,0.33727 -0.66167,0.7295 -0.66167,0.87161 0,0.43442 -0.80239,1.09021 -1.33393,1.09021 -0.36671,0 -0.45615,-0.1249 -0.33165,-0.46316 z m 10.31136,0.28672 c -0.097,-0.097 -0.17644,-0.51389 -0.17644,-0.92634 0,-0.41243 -0.10538,-0.74988 -0.23418,-0.74988 -0.12879,0 -0.31953,-0.68483 -0.42386,-1.52184 -0.10433,-0.83701 -0.28229,-1.58138 -0.39546,-1.65416 -0.11318,-0.0728 -0.29091,-0.75761 -0.39498,-1.52184 -0.1762,-1.29405 -0.15113,-1.3895 0.36497,-1.3895 0.4393,0 0.55417,0.16459 0.55417,0.794 0,0.4367 0.10741,0.794 0.23868,0.794 0.13128,0 0.32162,0.7146 0.42299,1.588 0.10137,0.8734 0.29171,1.588 0.42299,1.588 0.13127,0 0.23867,0.30626 0.23867,0.68057 0,1.14975 0.77102,0.0903 0.96518,-1.32619 0.091,-0.66388 0.25313,-1.20704 0.36031,-1.20704 0.10717,0 0.27293,-0.48821 0.36834,-1.0849 0.0954,-0.59669 0.34033,-1.25174 0.54426,-1.45566 0.48945,-0.48945 1.20258,-0.4739 1.20258,0.0262 0,0.21835 0.11769,0.397 0.26154,0.397 0.14385,0 0.33772,0.4764 0.43083,1.05866 0.0931,0.58227 0.26587,1.05867 0.38391,1.05867 0.11804,0 0.29499,0.53595 0.39322,1.191 0.0982,0.65505 0.27545,1.191 0.39381,1.191 0.11837,0 0.26968,0.20842 0.33625,0.46317 0.11527,0.44111 0.1225,0.44111 0.15174,0 0.0169,-0.25475 0.13441,-0.46317 0.26117,-0.46317 0.12676,0 0.31262,-0.8337 0.41303,-1.85267 0.1004,-1.01896 0.29444,-1.85266 0.43119,-1.85266 0.13676,0 0.24864,-0.3573 0.24864,-0.794 0,-0.62942 0.11488,-0.794 0.55417,-0.794 0.51611,0 0.54118,0.0954 0.36497,1.3895 -0.10406,0.76422 -0.2818,1.44905 -0.39497,1.52183 -0.11317,0.0728 -0.29113,0.81716 -0.39546,1.65417 -0.10433,0.837 -0.28753,1.52183 -0.4071,1.52183 -0.11957,0 -0.25472,0.38707 -0.30034,0.86017 -0.0686,0.71178 -0.2059,0.87436 -0.79575,0.94246 -0.62977,0.0727 -0.73341,-0.0275 -0.88962,-0.86017 -0.0972,-0.51835 -0.26913,-0.94246 -0.38197,-0.94246 -0.11283,0 -0.28553,-0.53595 -0.38376,-1.191 -0.0982,-0.65505 -0.28094,-1.191 -0.40602,-1.191 -0.12508,0 -0.30728,-0.36361 -0.40489,-0.80802 -0.21123,-0.96172 -0.75633,-0.89903 -0.87467,0.10059 -0.0461,0.38909 -0.18764,0.70743 -0.31461,0.70743 -0.12698,0 -0.31124,0.53595 -0.40948,1.191 -0.0982,0.65505 -0.27092,1.191 -0.38376,1.191 -0.11284,0 -0.28336,0.41685 -0.37894,0.92633 -0.13847,0.73812 -0.29682,0.92633 -0.77934,0.92633 -0.33306,0 -0.68497,-0.0794 -0.78201,-0.17644 z m 12.95895,-0.0162 c -0.801,-0.11949 -2.0194,-1.22423 -2.0194,-1.831 0,-0.1971 -0.1191,-0.35836 -0.26466,-0.35836 -0.1493,0 -0.26467,-0.74988 -0.26467,-1.72033 0,-0.97045 0.11537,-1.72033 0.26467,-1.72033 0.14556,0 0.26466,-0.16126 0.26466,-0.35836 0,-0.19709 0.29207,-0.67349 0.64903,-1.05866 0.57431,-0.61969 0.84821,-0.70032 2.37898,-0.70032 1.754,0 2.79466,0.46541 2.79466,1.24982 0,0.186 0.1191,0.33818 0.26467,0.33818 0.14556,0 0.26466,0.53595 0.26466,1.191 0,1.191 0,1.191 -2.779,1.191 -2.779,0 -2.779,0 -2.779,0.75536 0,0.43495 0.2753,1.0524 0.64903,1.45566 0.58356,0.62967 0.8372,0.70032 2.51434,0.70032 1.40623,0 1.8653,0.0896 1.8653,0.36391 0,0.58257 -1.73164,0.81118 -3.80327,0.50212 z m 3.00927,-5.30654 c 0,-0.40905 -0.23616,-0.93738 -0.53236,-1.191 -0.5733,-0.49088 -2.64364,-0.64058 -2.64364,-0.19115 0,0.14557 -0.16476,0.26467 -0.36613,0.26467 -0.34025,0 -0.68051,0.75163 -0.68892,1.52183 -0.003,0.2374 0.59437,0.33083 2.11372,0.33083 2.11733,0 2.11733,0 2.11733,-0.73518 z m 4.69783,5.32119 c -0.9925,-0.11863 -0.9925,-0.11863 -0.9925,-5.52832 0,-5.23324 0.0173,-5.40969 0.52934,-5.40969 0.47052,0 0.52933,0.17645 0.52933,1.588 0,1.588 0,1.588 1.985,1.588 1.09175,0 1.985,0.10619 1.985,0.23598 0,0.12978 0.30136,0.31161 0.66969,0.40406 0.47224,0.11852 0.71611,0.40011 0.82709,0.95502 0.0866,0.43282 0.2616,0.78694 0.38897,0.78694 0.12737,0 0.23158,0.53595 0.23158,1.191 0,0.65505 -0.10387,1.191 -0.23084,1.191 -0.12696,0 -0.30574,0.46842 -0.39729,1.04093 -0.12273,0.76751 -0.32278,1.08971 -0.76166,1.22667 -0.32736,0.10216 -0.66592,0.29548 -0.75234,0.42959 -0.18584,0.2884 -2.6004,0.46947 -4.01137,0.30082 z m 3.24217,-1.11665 c 0,-0.12978 0.2892,-0.30856 0.64266,-0.39727 0.5494,-0.13789 0.66854,-0.3685 0.82106,-1.58922 0.24662,-1.97386 -0.0226,-3.03124 -0.82314,-3.23214 -0.35232,-0.0884 -0.64058,-0.26697 -0.64058,-0.39675 0,-0.12979 -0.53595,-0.23598 -1.191,-0.23598 -0.65505,0 -1.191,0.1191 -1.191,0.26467 0,0.14557 -0.17865,0.26467 -0.397,0.26467 -0.32768,0 -0.397,0.48522 -0.397,2.779 0,2.779 0,2.779 1.588,2.779 0.8734,0 1.588,-0.10619 1.588,-0.23598 z m -80.408649,-6.98882 c -0.05001,-2.59313 -0.05001,-2.59313 1.604152,-2.51433 1.653287,0.0787 1.654207,0.0793 1.736957,0.93706 0.068,0.7051 -0.0383,0.91342 -0.5955,1.16731 -0.37306,0.16998 -0.67829,0.38558 -0.67829,0.4791 0,0.0935 0.3676,0.66991 0.8169,1.28085 0.50961,0.69297 0.68384,1.10982 0.46316,1.10818 -0.19455,-0.001 -0.73956,-0.56058 -1.211128,-1.24253 -0.857402,-1.23991 -0.857402,-1.23991 -0.04809,-1.5802 0.666148,-0.2801 0.794418,-0.46996 0.725068,-1.0733 -0.0781,-0.67983 -0.17066,-0.73301 -1.275246,-0.73301 -1.190999,0 -1.190999,0 -1.339485,2.382 -0.148486,2.382 -0.148486,2.382 -0.1985,-0.21113 z"
         id="path2955" />
      <path
         style="fill:#017094;stroke-width:0.264667"
         d="m 96.925007,117.12485 c -1.887598,-0.36864 -4.396241,-1.74921 -5.969415,-3.28512 -1.703742,-1.66338 -3.22194,-4.60464 -3.473602,-6.72953 -0.153043,-1.29221 -0.126716,-1.38956 0.337683,-1.24858 0.372606,0.11311 4.609332,0.70248 5.049839,0.70248 0.0334,0 0.310883,0.56573 0.616633,1.25717 0.731533,1.65434 1.689487,2.64093 3.306528,3.40539 4.134307,1.95449 8.910737,-0.84545 9.372577,-5.4942 0.15542,-1.56446 0.15542,-1.56446 1.55594,-2.212 1.71266,-0.79187 1.75474,-0.72915 1.59196,2.37231 -0.0947,1.80446 -0.2705,2.52856 -0.94346,3.88631 -0.82706,1.66865 -0.82706,1.66865 -0.0214,2.34124 0.80565,0.67259 0.80565,0.67259 -0.51133,1.90448 -2.94546,2.75513 -6.91033,3.88153 -10.911943,3.10005 z m 33.348003,-8.51693 c 0,-4.76154 0.0351,-5.1322 0.52528,-5.55194 0.71063,-0.60846 1.67346,-0.81983 2.78479,-0.61134 1.44289,0.27068 1.16748,0.82795 -0.35694,0.72223 -1.55077,-0.10755 -2.15913,0.37026 -2.15913,1.6958 0,0.89903 0.011,0.90743 1.191,0.90743 0.88222,0 1.191,0.10293 1.191,0.397 0,0.29408 -0.30878,0.397 -1.191,0.397 -1.191,0 -1.191,0 -1.191,3.573 0,2.99956 -0.0637,3.573 -0.397,3.573 -0.33916,0 -0.397,-0.74335 -0.397,-5.10218 z m -14.292,0.99985 c 0,-3.23481 0.0624,-3.83767 0.397,-3.83767 0.21835,0 0.397,0.17865 0.397,0.397 0,0.21835 0.18238,0.397 0.4053,0.397 0.22292,0 0.47386,-0.17865 0.55765,-0.397 0.0838,-0.21835 0.43735,-0.397 0.7857,-0.397 0.38653,0 0.63335,0.15471 0.63335,0.397 0,0.22364 -0.23667,0.397 -0.54198,0.397 -0.29808,0 -0.83403,0.31514 -1.191,0.70032 -0.60204,0.64962 -0.64902,0.89868 -0.64902,3.44066 0,2.25943 -0.0697,2.74036 -0.397,2.74036 -0.33464,0 -0.397,-0.60286 -0.397,-3.83767 z m 5.42566,3.22011 c -0.74935,-0.8118 -0.71526,-2.50485 0.0662,-3.28628 0.5183,-0.5183 0.86997,-0.5955 2.71283,-0.5955 2.08205,0 2.11734,-0.011 2.11734,-0.66166 0,-1.2242 -0.83962,-1.72034 -2.91134,-1.72034 -1.47037,0 -1.85266,-0.0819 -1.85266,-0.397 0,-0.3198 0.4117,-0.397 2.11733,-0.397 1.16453,0 2.11733,0.10619 2.11733,0.23598 0,0.12978 0.29775,0.3107 0.66167,0.40204 0.66167,0.16607 0.66167,0.16607 0.66167,3.60169 0,2.11397 -0.10182,3.43563 -0.26467,3.43563 -0.14557,0 -0.26467,-0.1191 -0.26467,-0.26467 0,-0.14557 -0.2382,-0.26467 -0.52933,-0.26467 -0.29113,0 -0.52933,0.1191 -0.52933,0.26467 0,0.15248 -0.75724,0.25532 -1.7865,0.24261 -1.47588,-0.0182 -1.87854,-0.12176 -2.31584,-0.5955 z m 4.51824,-0.55454 c 0.20795,-0.20795 0.3781,-0.863 0.3781,-1.45567 0,-1.07757 0,-1.07757 -1.12484,-1.10561 -1.89042,-0.0471 -2.65165,0.0614 -3.0209,0.43064 -0.44536,0.44536 -0.458,1.6185 -0.0228,2.11284 0.45284,0.51434 3.28058,0.52762 3.7904,0.0178 z m 10.7001,0.93612 c 0,-0.12978 -0.29775,-0.3107 -0.66167,-0.40204 -0.60475,-0.15178 -0.66167,-0.29043 -0.66167,-1.61165 0,-1.32122 0.0569,-1.45987 0.66167,-1.61165 0.36392,-0.0913 0.66167,-0.26725 0.66167,-0.39091 0,-0.12366 0.92302,-0.25963 2.05116,-0.30214 2.05117,-0.0773 2.05117,-0.0773 2.00093,-0.80811 -0.0846,-1.23137 -0.62102,-1.51886 -2.83388,-1.51886 -1.66513,0 -1.97037,-0.0657 -1.84326,-0.397 0.11641,-0.30335 0.61391,-0.397 2.10903,-0.397 1.12801,0 1.95668,0.11209 1.95668,0.26467 0,0.14557 0.17015,0.26467 0.3781,0.26467 0.98645,0 1.2099,0.7367 1.2099,3.9889 0,2.62986 -0.0663,3.1571 -0.397,3.1571 -0.21835,0 -0.397,-0.1191 -0.397,-0.26467 0,-0.14557 -0.17865,-0.26467 -0.397,-0.26467 -0.21835,0 -0.397,0.1191 -0.397,0.26467 0,0.1493 -0.74989,0.26467 -1.72033,0.26467 -0.94618,0 -1.72033,-0.10619 -1.72033,-0.23598 z m 3.7023,-1.01384 c 0.5421,-0.46416 0.69653,-1.52242 0.31083,-2.13011 -0.13133,-0.20692 -0.83162,-0.34497 -1.82056,-0.35889 -1.30023,-0.0183 -1.71357,0.0838 -2.16452,0.53476 -0.67876,0.67876 -0.70468,1.19007 -0.0942,1.85867 0.62681,0.6865 3.00779,0.74688 3.76847,0.0956 z m 3.70836,0.98515 c 0,-0.14557 0.1191,-0.26467 0.26467,-0.26467 0.14557,0 0.26467,-0.15218 0.26467,-0.33818 0,-0.186 0.2382,-0.54213 0.52933,-0.79141 0.29113,-0.24927 0.52933,-0.6203 0.52933,-0.8245 0,-0.2042 0.17865,-0.43983 0.397,-0.52362 0.50997,-0.19569 0.51767,-1.46259 0.0101,-1.65738 -0.21281,-0.0817 -0.46494,-0.39427 -0.56029,-0.69468 -0.0953,-0.30041 -0.45718,-0.80924 -0.80407,-1.13073 -0.80413,-0.74524 -0.80329,-1.1855 0.002,-1.1855 0.45444,0 0.67981,0.18663 0.79904,0.66167 0.0913,0.36392 0.2829,0.66167 0.42569,0.66167 0.1428,0 0.25963,0.15218 0.25963,0.33818 0,0.37711 0.92263,1.24982 1.32131,1.24982 0.14113,0 0.33133,-0.29775 0.42267,-0.66167 0.0913,-0.36392 0.276,-0.66167 0.41035,-0.66167 0.13435,0 0.3232,-0.20842 0.41966,-0.46316 0.25371,-0.66999 0.76426,-1.12484 1.2626,-1.12484 0.57244,0 0.28993,0.93414 -0.51276,1.69549 -0.32135,0.3048 -0.66099,0.7626 -0.75475,1.01735 -0.0938,0.25474 -0.29331,0.46316 -0.44344,0.46316 -0.15014,0 -0.27298,0.29775 -0.27298,0.66167 0,0.36392 0.1191,0.66167 0.26467,0.66167 0.14557,0 0.26467,0.15218 0.26467,0.33818 0,0.186 0.2382,0.54213 0.52933,0.79141 0.29113,0.24927 0.52933,0.6203 0.52933,0.8245 0,0.2042 0.17865,0.43983 0.397,0.52362 0.52369,0.20101 0.51023,0.69829 -0.019,0.69829 -0.44447,0 -1.1721,-0.60897 -1.1721,-0.98095 0,-0.12361 -0.2382,-0.4287 -0.52933,-0.67798 -0.29113,-0.24927 -0.52933,-0.63304 -0.52933,-0.85282 0,-0.21977 -0.12761,-0.39959 -0.28358,-0.39959 -0.33779,0 -1.03976,0.66226 -1.03976,0.98095 0,0.12361 -0.2382,0.4287 -0.52933,0.67798 -0.29113,0.24927 -0.52933,0.63304 -0.52933,0.85282 0,0.24978 -0.24806,0.39959 -0.66167,0.39959 -0.36392,0 -0.66167,-0.1191 -0.66167,-0.26467 z m 10.14997,-0.52933 c -0.0873,-0.4367 -0.24929,-0.794 -0.35989,-0.794 -0.1106,0 -0.28645,-0.68483 -0.39078,-1.52184 -0.10433,-0.83701 -0.2785,-1.58138 -0.38705,-1.65416 -0.10854,-0.0728 -0.26949,-0.75761 -0.35766,-1.52184 -0.12315,-1.06736 -0.0777,-1.3895 0.1959,-1.3895 0.41525,0 0.67751,0.57186 0.67751,1.47732 0,0.35201 0.10741,0.64002 0.23868,0.64002 0.13128,0 0.32162,0.7146 0.42299,1.588 0.10137,0.8734 0.29171,1.588 0.42299,1.588 0.13127,0 0.23867,0.18715 0.23867,0.4159 0,0.84903 0.77348,-0.32668 0.95284,-1.44834 0.0954,-0.5967 0.27007,-1.0849 0.38811,-1.0849 0.11804,0 0.29499,-0.53595 0.39322,-1.191 0.0982,-0.65505 0.28418,-1.191 0.41322,-1.191 0.12904,0 0.23461,-0.17865 0.23461,-0.397 0,-0.22055 0.23526,-0.397 0.52934,-0.397 0.29407,0 0.52933,0.17645 0.52933,0.397 0,0.21835 0.10558,0.397 0.23462,0.397 0.12904,0 0.31498,0.53595 0.41321,1.191 0.0982,0.65505 0.27519,1.191 0.39323,1.191 0.11804,0 0.29269,0.4882 0.3881,1.0849 0.3804,2.3789 1.30812,2.08431 1.60934,-0.51104 0.10421,-0.89789 0.29688,-1.63252 0.42816,-1.63252 0.13127,0 0.23867,-0.4764 0.23867,-1.05867 0,-0.89804 0.0841,-1.05867 0.55417,-1.05867 0.51595,0 0.54121,0.0958 0.36621,1.3895 -0.10339,0.76423 -0.2903,1.42823 -0.41536,1.47557 -0.12507,0.0473 -0.3052,0.67261 -0.4003,1.3895 -0.0951,0.71689 -0.27667,1.30343 -0.40348,1.30343 -0.12681,0 -0.23057,0.28801 -0.23057,0.64002 0,1.04031 -0.28147,1.47732 -0.95152,1.47732 -0.5306,0 -0.65698,-0.16735 -0.79951,-1.05867 -0.0931,-0.58227 -0.25991,-1.05867 -0.37067,-1.05867 -0.11076,0 -0.27959,-0.41685 -0.37517,-0.92633 -0.0956,-0.50948 -0.27226,-0.92633 -0.39263,-0.92633 -0.12036,0 -0.29503,-0.4764 -0.38813,-1.05867 -0.19993,-1.25028 -0.64031,-1.38512 -0.8644,-0.26467 -0.0873,0.4367 -0.24949,0.794 -0.36033,0.794 -0.11085,0 -0.28191,0.53595 -0.38014,1.191 -0.0982,0.65505 -0.27518,1.191 -0.39322,1.191 -0.11804,0 -0.29081,0.4764 -0.38391,1.05867 -0.14542,0.90937 -0.26309,1.05867 -0.83445,1.05867 -0.52732,0 -0.69806,-0.16453 -0.82395,-0.794 z m 12.61136,0.55802 c 0,-0.12978 -0.30136,-0.31161 -0.66969,-0.40406 -0.47223,-0.11852 -0.7161,-0.40011 -0.82708,-0.95502 -0.0866,-0.43282 -0.2616,-0.78694 -0.38898,-0.78694 -0.12737,0 -0.23158,-0.7146 -0.23158,-1.588 0,-0.8734 0.10619,-1.588 0.23598,-1.588 0.12978,0 0.31025,-0.29594 0.40103,-0.65764 0.10182,-0.40571 0.41698,-0.72086 0.82269,-0.82269 0.3617,-0.0908 0.65763,-0.27125 0.65763,-0.40103 0,-0.12979 0.7146,-0.23598 1.588,-0.23598 0.8734,0 1.588,0.10521 1.588,0.2338 0,0.12859 0.2382,0.29609 0.52934,0.37222 0.35769,0.0935 0.52933,0.36101 0.52933,0.82487 0,0.37755 0.1191,0.68645 0.26467,0.68645 0.44263,0 0.30467,1.51601 -0.15398,1.69201 -0.23026,0.0884 -1.48081,0.16065 -2.779,0.16065 -2.2724,0 -2.36022,0.0222 -2.35674,0.5955 0.006,1.01044 0.3054,1.7865 0.68892,1.7865 0.20137,0 0.36613,0.1191 0.36613,0.26467 0,0.15292 0.83811,0.26467 1.985,0.26467 1.588,0 1.985,0.0794 1.985,0.397 0,0.3198 -0.4117,0.397 -2.11733,0.397 -1.16454,0 -2.11734,-0.10619 -2.11734,-0.23598 z m 3.44067,-4.99854 c 0,-1.00091 -0.83045,-1.64682 -2.11733,-1.64682 -1.28688,0 -2.11734,0.64591 -2.11734,1.64682 0,0.73518 0,0.73518 2.11734,0.73518 2.11733,0 2.11733,0 2.11733,-0.73518 z m 3.70533,-0.19115 c 0,-5.24922 0.0172,-5.42567 0.52934,-5.42567 0.47892,0 0.52933,0.17645 0.52933,1.85267 0,1.05867 0.11343,1.85267 0.26467,1.85267 0.14556,0 0.26466,-0.1191 0.26466,-0.26467 0,-0.1493 0.74989,-0.26467 1.72034,-0.26467 0.94618,0 1.72033,0.10619 1.72033,0.23598 0,0.12978 0.28352,0.30713 0.63004,0.3941 0.62815,0.15766 0.94743,0.81017 0.95435,1.95042 0.002,0.32753 0.12271,0.5955 0.26828,0.5955 0.14556,0 0.26466,0.29775 0.26466,0.66167 0,0.36392 -0.1191,0.66167 -0.26466,0.66167 -0.14557,0 -0.26467,0.31549 -0.26467,0.70109 0,0.45153 -0.32507,1.01681 -0.91321,1.588 -0.8994,0.87349 -0.94947,0.88691 -3.30834,0.88691 -2.39512,0 -2.39512,0 -2.39512,-5.42567 z m 5.09484,4.03617 c 0.50412,-0.50413 0.5955,-0.87977 0.5955,-2.44817 0,-2.4077 -0.52932,-3.04367 -2.53324,-3.04367 -1.94255,0 -2.09843,0.25418 -2.09843,3.42176 0,2.66558 0,2.66558 1.72033,2.66558 1.43117,0 1.82044,-0.1001 2.31584,-0.5955 z"
         id="path2953" />
    </g>
  </g>
</svg>
